<?xml version="1.0" encoding="utf-8"?>
<!-- Generator: Adobe Illustrator 27.5.0, SVG Export Plug-In . SVG Version: 6.00 Build 0)  -->
<svg version="1.1" xmlns="http://www.w3.org/2000/svg" xmlns:xlink="http://www.w3.org/1999/xlink" x="0px" y="0px"
	 viewBox="0 0 500 500" style="enable-background:new 0 0 500 500;" xml:space="preserve">
<g id="BACKGROUND">
</g>
<g id="OBJECTS">
	<g>
		<path style="fill:#FBF5FF;" d="M100.593,178.824c0.57,0.747,0.608,1.676,0.863,2.53c0.522,1.095,0.893,2.237,1.076,3.438
			c0.438,0.457,0.554,1.034,0.608,1.635c1.017,2.763,1.766,5.608,2.601,8.427c0.5,1.688,0.841,3.316,2.352,4.652
			c0.284,0.251,0.565,0.505,0.847,0.757c-0.36,0.307-0.721,0.614-1.084,0.919c-1.996-1.835-4.014-3.645-6.059-5.427
			c-0.437-0.381-0.898-0.617-1.461-0.769c-1.449-0.392-2.905-0.786-4.309-1.312c-2.612-0.977-5.208-1.01-7.887-0.287
			c-3.318,0.895-6.614,1.88-10.073,2.18c-4.714,0.409-9.436,0.357-14.157,0.419c-2.688,0.036-5.289-0.305-7.689-1.603
			c-1.41-0.763-2.656-2.253-2.17-4.494c0.596-2.751,2.666-4.012,5.026-4.625c7.465-1.94,14.861-1.435,22.144,1.069
			c5.44,1.871,10.789,3.981,16.165,6.149c0.009-0.654-0.522-0.819-0.859-1.091c-4.769-3.857-9.74-7.445-14.863-10.81
			c-1.897-1.246-3.716-2.834-6.251-2.702c-0.459,0.024-0.934-0.09-1.391-0.189c-5.275-1.146-10.263-0.472-15.302,1.573
			c-5.014,2.036-10.305,3.365-15.855,2.542c-0.342,0.052-0.621-0.15-0.93-0.231c-0.632-0.368-1.341-0.648-1.883-1.12
			c-2.192-1.909-2.943-4.469,0.12-6.479c1.804-1.184,3.814-1.862,5.937-2.184c5.187-0.788,10.306-0.018,15.411,0.773
			c3.066,0.475,6.106,1.123,9.478,1.754c-1.833-1.24-3.554-2.008-5.223-2.865c-3.478-1.787-7.045-3.393-10.694-4.786
			c-1.65-0.63-3.265-1.734-5.118-1.464c-8.723,1.274-17.464,1.544-26.221,0.527c-6.054-0.703-12.03-1.801-17.517-4.654
			c-1.009-0.525-2.256-1.027-2.346-2.367c-0.096-1.415,1.197-1.856,2.179-2.449c0.251-0.152,0.536-0.253,0.813-0.357
			c5.006-1.894,10.263-2.234,15.531-2.496c2.628-0.131,5.213,0.14,7.774,0.763c4.577,1.113,8.812,3.052,13.009,5.135
			c3.146,1.561,5.909,3.809,9.315,4.918c2.729,0.888,5.399,1.988,8.025,3.153c4.71,2.09,9.299,4.427,13.755,7.024
			c3.388,1.975,6.742,4.001,9.969,6.231c0.811,0.56,1.656,1.071,2.485,1.605c-1.455-2.179-3.15-4.083-5.005-5.828
			c-6.859-6.458-14.811-11.421-22.691-16.476c-3.35-2.149-6.706-4.282-9.078-7.587c-0.965-1.344-1.982-2.908-1.113-4.477
			c0.82-1.481,2.596-1.425,4.184-1.272c1.829,0.176,3.516,0.856,5.093,1.694c7.027,3.732,12.314,9.395,16.913,15.731
			c3.611,4.974,6.435,10.498,10.576,15.112c2.014,2.245,3.757,4.751,6.076,6.699c2.445,2.054,5.036,3.935,7.545,5.914
			c1.611,1.271,3.19,2.583,4.909,3.978c0.166-1.616,0.066-2.987-1.101-4.098c-0.782-0.745-1.582-1.478-2.3-2.283
			c-4.258-4.772-8.652-9.414-13.171-13.939c-2.904-2.908-4.825-6.327-5.382-10.433c-0.278-2.048,0.641-3.714,2.421-4.364
			c1.437-0.525,2.914-0.489,4.361,0.079c3.118,1.225,4.974,3.756,6.626,6.464C97.824,170.799,99.194,174.82,100.593,178.824z"/>
		<path style="fill:#FBF5FF;" d="M106.553,209.355c0.66-0.669,0.816-1.585,1.177-2.4c0.656-1.02,1.17-2.106,1.504-3.274
			c0.492-0.398,0.681-0.956,0.811-1.544c1.359-2.611,2.463-5.338,3.649-8.029c0.71-1.611,1.255-3.183,2.924-4.316
			c0.313-0.213,0.624-0.429,0.936-0.644c-0.318-0.351-0.638-0.701-0.958-1.049c-2.212,1.567-4.445,3.106-6.698,4.614
			c-0.482,0.322-0.969,0.498-1.547,0.578c-1.487,0.205-2.981,0.411-4.44,0.754c-2.715,0.638-5.294,0.341-7.86-0.717
			c-3.177-1.309-6.321-2.705-9.715-3.441c-4.624-1.004-9.314-1.551-13.989-2.213c-2.662-0.377-5.285-0.369-7.83,0.614
			c-1.496,0.578-2.92,1.898-2.723,4.182c0.242,2.804,2.135,4.318,4.399,5.226c7.159,2.872,14.559,3.31,22.101,1.75
			c5.634-1.165,11.207-2.58,16.815-4.048c-0.074,0.65-0.622,0.746-0.991,0.973c-5.22,3.22-10.606,6.148-16.115,8.836
			c-2.04,0.995-4.045,2.339-6.543,1.887c-0.453-0.082-0.938-0.03-1.403,0.011c-5.377,0.468-10.24-0.834-14.978-3.503
			c-4.715-2.655-9.794-4.646-15.404-4.534c-0.333-0.095-0.635,0.07-0.952,0.111c-0.674,0.285-1.412,0.473-2.009,0.872
			c-2.417,1.615-3.487,4.059-0.704,6.442c1.639,1.403,3.547,2.331,5.612,2.92c5.045,1.44,10.221,1.326,15.385,1.189
			c3.102-0.082,6.199-0.34,9.624-0.537c-1.976,0.998-3.781,1.54-5.544,2.179c-3.677,1.331-7.419,2.471-11.215,3.39
			c-1.717,0.415-3.459,1.306-5.262,0.802c-8.491-2.371-17.127-3.748-25.942-3.85c-6.094-0.071-12.161,0.26-17.966,2.393
			c-1.068,0.392-2.368,0.733-2.628,2.05c-0.274,1.392,0.952,1.993,1.85,2.705c0.23,0.183,0.5,0.319,0.761,0.458
			c4.725,2.514,9.896,3.519,15.089,4.447c2.59,0.463,5.189,0.523,7.808,0.23c4.681-0.523,9.129-1.909,13.555-3.443
			c3.319-1.15,6.344-3.028,9.864-3.696c2.819-0.535,5.608-1.287,8.36-2.109c4.937-1.475,9.786-3.211,14.535-5.222
			c3.611-1.529,7.195-3.113,10.679-4.916c0.875-0.453,1.778-0.852,2.669-1.277c-1.72,1.976-3.643,3.65-5.704,5.146
			c-7.623,5.535-16.141,9.449-24.598,13.463c-3.595,1.706-7.195,3.396-9.968,6.374c-1.128,1.211-2.335,2.633-1.672,4.299
			c0.626,1.574,2.395,1.743,3.989,1.793c1.837,0.057,3.596-0.403,5.267-1.034c7.444-2.81,13.406-7.756,18.773-13.457
			c4.213-4.475,7.715-9.596,12.408-13.648c2.283-1.971,4.33-4.236,6.877-5.874c2.686-1.727,5.494-3.264,8.234-4.909
			c1.76-1.056,3.492-2.157,5.374-3.323c-0.041,1.624-0.314,2.971-1.612,3.925c-0.87,0.64-1.757,1.266-2.571,1.973
			c-4.829,4.193-9.777,8.24-14.833,12.155c-3.249,2.516-5.589,5.664-6.663,9.665c-0.536,1.996,0.165,3.765,1.847,4.636
			c1.359,0.703,2.828,0.855,4.336,0.475c3.248-0.819,5.41-3.094,7.393-5.571C102.788,216.963,104.657,213.148,106.553,209.355z"/>
		<path style="fill:#FBF5FF;" d="M397.955,388.197c-0.134-0.93,0.285-1.76,0.478-2.63c0.078-1.21,0.31-2.389,0.734-3.527
			c-0.16-0.613,0.02-1.173,0.265-1.724c0.457-2.908,1.189-5.758,1.832-8.627c0.385-1.718,0.881-3.306,0.211-5.209
			c-0.126-0.357-0.247-0.716-0.371-1.074c0.464-0.093,0.929-0.185,1.394-0.275c0.849,2.574,1.731,5.138,2.649,7.69
			c0.196,0.545,0.484,0.977,0.901,1.384c1.075,1.048,2.154,2.101,3.124,3.244c1.805,2.126,4.057,3.418,6.749,4.092
			c3.334,0.834,6.692,1.578,9.86,3.001c4.317,1.939,8.415,4.284,12.569,6.528c2.365,1.278,4.471,2.842,5.935,5.144
			c0.86,1.353,1.222,3.261-0.293,4.982c-1.86,2.113-4.282,2.206-6.642,1.592c-7.465-1.941-13.679-5.984-18.82-11.718
			c-3.841-4.284-7.485-8.731-11.124-13.243c-0.326,0.567,0.057,0.969,0.219,1.371c2.287,5.691,4.881,11.246,7.717,16.68
			c1.05,2.012,1.865,4.285,4.143,5.404c0.413,0.203,0.772,0.533,1.122,0.842c4.049,3.57,8.734,5.411,14.131,6.078
			c5.371,0.664,10.639,2.079,15.085,5.501c0.324,0.121,0.47,0.434,0.7,0.655c0.373,0.629,0.855,1.219,1.099,1.895
			c0.985,2.735,0.395,5.336-3.26,5.6c-2.152,0.155-4.238-0.232-6.249-0.984c-4.914-1.838-9.01-5.003-13.084-8.181
			c-2.447-1.909-4.786-3.955-7.424-6.148c0.997,1.976,2.127,3.485,3.166,5.046c2.168,3.255,4.501,6.394,7.01,9.388
			c1.135,1.354,2.007,3.105,3.757,3.771c8.24,3.136,16.005,7.156,23.158,12.31c4.945,3.563,9.63,7.432,13.033,12.595
			c0.626,0.95,1.47,1.996,0.897,3.21c-0.606,1.283-1.949,1.038-3.095,1.078c-0.294,0.01-0.592-0.041-0.884-0.084
			c-5.295-0.784-10.052-3.047-14.78-5.384c-2.359-1.166-4.485-2.661-6.419-4.452c-3.456-3.201-6.21-6.958-8.861-10.82
			c-1.987-2.896-3.306-6.204-5.741-8.832c-1.951-2.105-3.747-4.366-5.473-6.662c-3.096-4.119-5.966-8.395-8.593-12.834
			c-1.997-3.375-3.94-6.777-5.673-10.297c-0.435-0.884-0.925-1.742-1.389-2.612c0.21,2.611,0.763,5.1,1.533,7.528
			c2.846,8.98,7.374,17.188,11.794,25.441c1.879,3.508,3.772,7.005,4.234,11.048c0.188,1.644,0.314,3.505-1.208,4.452
			c-1.438,0.894-2.962-0.02-4.274-0.926c-1.512-1.045-2.653-2.46-3.623-3.96c-4.32-6.682-6.179-14.202-7.111-21.976
			c-0.732-6.103-0.508-12.302-1.877-18.349c-0.666-2.941-0.968-5.98-2.045-8.81c-1.135-2.985-2.482-5.889-3.709-8.84
			c-0.788-1.895-1.529-3.81-2.35-5.865c-0.932,1.331-1.512,2.577-1.034,4.116c0.32,1.032,0.662,2.062,0.897,3.114
			c1.395,6.241,2.972,12.436,4.715,18.588c1.12,3.954,1.133,7.876-0.38,11.733c-0.754,1.924-2.369,2.931-4.239,2.633
			c-1.511-0.241-2.784-0.992-3.771-2.193c-2.127-2.588-2.515-5.703-2.639-8.873C396.465,396.554,397.228,392.375,397.955,388.197z"
			/>
		<path style="fill:#FBF5FF;" d="M420.264,309.356c-0.94,0.006-1.698,0.544-2.53,0.865c-1.185,0.257-2.316,0.662-3.378,1.252
			c-0.63-0.067-1.157,0.194-1.665,0.519c-2.808,0.885-5.517,2.033-8.257,3.097c-1.641,0.637-3.138,1.363-5.119,0.985
			c-0.372-0.071-0.745-0.138-1.117-0.207c-0.023,0.473-0.045,0.946-0.064,1.42c2.672,0.456,5.339,0.947,7.999,1.474
			c0.569,0.113,1.038,0.333,1.502,0.685c1.196,0.907,2.399,1.817,3.673,2.606c2.371,1.469,3.985,3.503,5.051,6.065
			c1.321,3.172,2.558,6.382,4.436,9.303c2.56,3.98,5.489,7.683,8.327,11.456c1.616,2.149,3.476,3.998,5.971,5.102
			c1.466,0.649,3.407,0.723,4.883-1.032c1.812-2.154,1.543-4.563,0.585-6.805c-3.031-7.093-7.954-12.635-14.39-16.865
			c-4.808-3.16-9.749-6.101-14.752-9.028c0.512-0.407,0.967-0.088,1.389,0.012c5.968,1.414,11.847,3.152,17.643,5.147
			c2.146,0.739,4.515,1.206,5.961,3.292c0.262,0.378,0.642,0.684,1,0.985c4.133,3.472,6.651,7.831,8.115,13.068
			c1.457,5.212,3.641,10.21,7.686,14.098c0.168,0.303,0.499,0.4,0.752,0.595c0.678,0.275,1.333,0.664,2.037,0.804
			c2.851,0.567,5.336-0.405,5.052-4.058c-0.167-2.151-0.86-4.156-1.904-6.033c-2.549-4.586-6.29-8.165-10.038-11.719
			c-2.252-2.135-4.624-4.143-7.185-6.426c2.103,0.692,3.762,1.584,5.461,2.38c3.541,1.659,6.993,3.498,10.327,5.533
			c1.508,0.92,3.369,1.522,4.288,3.153c4.328,7.681,9.46,14.761,15.621,21.066c4.259,4.359,8.783,8.415,14.396,11.011
			c1.033,0.478,2.193,1.156,3.307,0.409c1.178-0.79,0.736-2.082,0.605-3.221c-0.034-0.292-0.128-0.579-0.215-0.862
			c-1.563-5.119-4.51-9.486-7.525-13.814c-1.504-2.159-3.3-4.039-5.358-5.684c-3.68-2.94-7.805-5.105-12.019-7.151
			c-3.159-1.534-6.627-2.345-9.588-4.362c-2.372-1.615-4.875-3.055-7.403-4.42c-4.534-2.448-9.19-4.649-13.97-6.586
			c-3.635-1.473-7.288-2.887-11.027-4.076c-0.939-0.299-1.86-0.655-2.79-0.984c2.614-0.181,5.157-0.005,7.672,0.394
			c9.304,1.476,18.094,4.732,26.914,7.874c3.749,1.336,7.489,2.686,11.555,2.541c1.653-0.059,3.513-0.211,4.222-1.858
			c0.67-1.555-0.461-2.926-1.553-4.088c-1.258-1.339-2.828-2.257-4.455-2.993c-7.251-3.277-14.964-3.995-22.79-3.759
			c-6.144,0.185-12.241,1.33-18.424,0.877c-3.008-0.221-6.057-0.067-9.016-0.71c-3.121-0.678-6.193-1.577-9.294-2.351
			c-1.991-0.497-3.995-0.944-6.15-1.45c1.177-1.119,2.323-1.879,3.916-1.636c1.068,0.163,2.137,0.348,3.213,0.423
			c6.379,0.449,12.74,1.087,19.083,1.894c4.077,0.519,7.957-0.053,11.546-2.123c1.79-1.033,2.546-2.779,1.972-4.584
			c-0.464-1.458-1.395-2.605-2.73-3.402c-2.876-1.717-6.013-1.638-9.167-1.288C428.306,306.639,424.287,308.015,420.264,309.356z"/>
		<path style="fill:#FBF5FF;" d="M130.871,144.418c-0.563,0.752-1.446,1.043-2.198,1.522c-0.911,0.801-1.908,1.47-3.013,1.975
			c-0.32,0.546-0.844,0.816-1.406,1.032c-2.38,1.733-4.912,3.231-7.395,4.804c-1.487,0.942-2.96,1.715-3.832,3.534
			c-0.164,0.342-0.331,0.681-0.497,1.022c-0.394-0.263-0.788-0.526-1.18-0.791c1.22-2.421,2.409-4.857,3.565-7.311
			c0.247-0.524,0.348-1.033,0.341-1.616c-0.019-1.501-0.037-3.009,0.084-4.503c0.227-2.78-0.452-5.286-1.879-7.666
			c-1.768-2.947-3.616-5.848-4.85-9.094c-1.681-4.423-2.921-8.979-4.271-13.504c-0.769-2.576-1.152-5.171-0.559-7.834
			c0.348-1.565,1.442-3.17,3.73-3.315c2.809-0.178,4.587,1.468,5.823,3.571c3.906,6.651,5.441,13.904,5.022,21.594
			c-0.313,5.745-0.882,11.466-1.498,17.23c0.631-0.17,0.645-0.726,0.815-1.125c2.407-5.642,4.5-11.403,6.337-17.251
			c0.68-2.166,1.711-4.349,0.892-6.751c-0.148-0.435-0.169-0.923-0.198-1.389c-0.339-5.387-2.35-10.002-5.694-14.29
			c-3.328-4.267-6.052-8.993-6.777-14.557c-0.144-0.315-0.025-0.639-0.032-0.958c0.181-0.709,0.257-1.467,0.563-2.117
			c1.237-2.63,3.494-4.052,6.265-1.655c1.632,1.412,2.833,3.161,3.723,5.115c2.175,4.774,2.833,9.909,3.467,15.036
			c0.38,3.08,0.588,6.181,0.902,9.597c0.692-2.103,0.96-3.968,1.329-5.807c0.769-3.834,1.339-7.704,1.682-11.595
			c0.155-1.76,0.776-3.614,0.01-5.323c-3.609-8.043-6.257-16.378-7.671-25.079c-0.978-6.016-1.554-12.064-0.309-18.122
			c0.229-1.114,0.372-2.451,1.635-2.904c1.335-0.479,2.112,0.645,2.951,1.427c0.215,0.2,0.39,0.447,0.566,0.685
			c3.19,4.298,4.953,9.262,6.644,14.258c0.844,2.492,1.29,5.053,1.391,7.687c0.18,4.707-0.528,9.311-1.385,13.917
			c-0.643,3.453-2.049,6.725-2.185,10.305c-0.109,2.868-0.437,5.737-0.841,8.581c-0.723,5.101-1.718,10.155-2.999,15.151
			c-0.974,3.799-2.006,7.578-3.27,11.292c-0.317,0.933-0.578,1.886-0.865,2.829c1.698-1.995,3.067-4.146,4.239-6.407
			c4.338-8.362,6.94-17.368,9.649-26.329c1.152-3.809,2.286-7.62,4.818-10.806c1.029-1.295,2.256-2.701,4.002-2.294
			c1.649,0.384,2.081,2.108,2.367,3.677c0.33,1.808,0.137,3.616-0.238,5.362c-1.67,7.78-5.673,14.412-10.511,20.568
			c-3.798,4.833-8.34,9.058-11.648,14.302c-1.609,2.551-3.544,4.913-4.784,7.676c-1.308,2.914-2.41,5.919-3.628,8.874
			c-0.782,1.897-1.613,3.775-2.486,5.809c1.6-0.282,2.891-0.753,3.642-2.179c0.503-0.956,0.99-1.926,1.568-2.837
			c3.427-5.399,6.692-10.895,9.81-16.478c2.004-3.588,4.768-6.37,8.565-8.028c1.894-0.827,3.748-0.398,4.859,1.136
			c0.898,1.239,1.267,2.669,1.116,4.217c-0.326,3.334-2.254,5.811-4.408,8.14C137.834,139.562,134.34,141.978,130.871,144.418z"/>
		<path style="fill:#FBF5FF;" d="M89.28,179.845c0.931,0.919,2.207,1.136,3.343,1.64c1.42,0.914,2.933,1.629,4.559,2.094
			c0.554,0.685,1.331,0.948,2.151,1.129c3.636,1.893,7.434,3.431,11.181,5.082c2.243,0.989,4.432,1.748,6.011,4.071
			c0.296,0.436,0.597,0.869,0.897,1.304c0.488-0.443,0.976-0.888,1.461-1.335c-2.182-3.081-4.325-6.19-6.426-9.328
			c-0.449-0.671-0.694-1.35-0.805-2.154c-0.285-2.071-0.573-4.152-1.05-6.184c-0.889-3.781-0.474-7.373,0.998-10.946
			c1.823-4.425,3.766-8.803,4.792-13.529c1.398-6.44,2.16-12.971,3.081-19.482c0.525-3.707,0.514-7.36-0.855-10.904
			c-0.804-2.083-2.643-4.067-5.824-3.792c-3.905,0.337-6.013,2.973-7.278,6.126c-4,9.969-4.609,20.275-2.436,30.778
			c1.623,7.846,3.592,15.607,5.637,23.417c-0.905-0.103-1.039-0.866-1.356-1.38c-4.485-7.27-8.562-14.77-12.305-22.442
			c-1.386-2.841-3.258-5.634-2.628-9.112c0.114-0.63,0.041-1.306-0.015-1.954c-0.651-7.489,1.162-14.261,4.878-20.859
			c3.698-6.567,6.469-13.64,6.313-21.452c0.132-0.464-0.098-0.885-0.155-1.326c-0.397-0.938-0.658-1.967-1.214-2.798
			c-2.249-3.366-5.653-4.856-8.971-0.98c-1.954,2.283-3.246,4.94-4.066,7.815c-2.005,7.026-1.847,14.234-1.656,21.425
			c0.115,4.32,0.473,8.633,0.748,13.403c-1.389-2.752-2.145-5.265-3.034-7.721c-1.854-5.12-3.441-10.331-4.721-15.619
			c-0.579-2.391-1.819-4.816-1.117-7.328c3.302-11.825,5.219-23.851,5.362-36.128c0.098-8.487-0.362-16.936-3.333-25.019
			c-0.547-1.487-1.02-3.298-2.854-3.659c-1.938-0.382-2.775,1.326-3.768,2.577c-0.254,0.32-0.444,0.696-0.638,1.06
			c-3.501,6.581-4.9,13.782-6.193,21.013c-0.645,3.607-0.728,7.226-0.321,10.874c0.728,6.519,2.659,12.713,4.794,18.877
			c1.601,4.621,4.217,8.835,5.147,13.737c0.745,3.926,1.792,7.81,2.938,11.643c2.054,6.875,4.472,13.628,7.272,20.242
			c2.129,5.029,4.335,10.02,6.846,14.872c0.631,1.219,1.187,2.477,1.778,3.717c-2.752-2.395-5.083-5.074-7.167-7.943
			c-7.708-10.616-13.159-22.478-18.749-34.256c-2.376-5.007-4.729-10.019-8.876-13.881c-1.686-1.57-3.667-3.251-5.987-2.329
			c-2.191,0.871-2.428,3.335-2.497,5.555c-0.08,2.558,0.562,5.008,1.44,7.335c3.914,10.367,10.801,18.67,18.741,26.144
			c6.233,5.867,13.364,10.744,19.006,17.28c2.745,3.179,5.899,6.03,8.18,9.578c2.405,3.741,4.546,7.651,6.837,11.467
			c1.471,2.45,3.004,4.864,4.628,7.484c-2.261-0.057-4.138-0.437-5.467-2.245c-0.891-1.212-1.763-2.447-2.747-3.581
			c-5.839-6.725-11.475-13.616-16.927-20.657c-3.504-4.525-7.888-7.784-13.46-9.279c-2.779-0.746-5.244,0.23-6.456,2.572
			c-0.979,1.892-1.191,3.939-0.662,6.038c1.141,4.523,4.309,7.534,7.758,10.296C78.684,174.603,83.997,177.205,89.28,179.845z"/>
		<path style="fill:#F5E3FF;" d="M250.039,165.929c-4.02-16.515,13.399-32.592,47.761-63.492
			c36.522-32.844,54.783-49.266,70.785-44.195c19.858,6.293,30.146,38.772,26.631,63.545c-6.655,46.901-64.751,80.034-107.838,70.56
			C284.096,191.625,254.629,184.782,250.039,165.929z"/>
		<path style="fill:#F5E3FF;" d="M468.756,269.444c-16.307,80.225-99.884,155.511-198.16,155.48
			c-91.312-0.029-180.704-68.129-198.16-155.48C59.338,203.899,85.34,120.438,129.39,108.74
			c45.932-12.198,68.297,81.008,148.653,91.803c77.726,10.443,124.872-65.614,166.277-41.615
			C475.527,177.016,475.597,235.787,468.756,269.444z"/>
		<g>
			<g>
				<path style="fill:#A8BADE;" d="M251.12,414.102c1.162,0.392,2.202,1.037,3.274,1.614c1.373,0.738,2.745,1.477,4.112,2.226
					c2.253,1.234,4.501,2.478,6.753,3.714c0.057,0.031,0.14,0.014,0.211,0.02c2.082,1.145,4.163,2.291,6.246,3.435
					c0.862,0.473,1.398,1.142,1.383,2.174c-0.004,0.3-0.096,0.56-0.22,0.819c-0.215,1.042-0.651,1.965-1.429,2.703
					c-0.636,1.033-1.638,1.331-2.922,0.869c-5.656-3.057-11.312-6.115-16.968-9.173c-1.043-0.564-2.081-1.135-3.125-1.697
					c-0.259-0.139-0.529-0.255-0.577-0.594c-0.034-0.453,0.301-0.743,0.484-1.096c0.749-1.446,1.53-2.875,2.29-4.315
					C250.764,414.548,250.873,414.275,251.12,414.102z"/>
				<path style="fill:#206194;" d="M271.45,430.806c0.476-0.901,0.953-1.802,1.429-2.703c0.166,0.476,0.735,0.631,0.852,1.201
					c0.105,0.515,0.063,0.961-0.29,1.25c-0.393,0.322-0.91,0.562-1.455,0.321C271.794,430.791,271.641,430.731,271.45,430.806z"/>
				<path style="fill:#206194;" d="M248.923,418.376c0.723-1.43,1.593-2.782,2.197-4.274c-0.29-0.164-0.577-0.335-0.871-0.492
					c-1.271-0.678-2.564-1.318-3.812-2.036c-2.644-1.521-5.375-2.878-8.033-4.376c-1.771-0.999-3.567-1.976-5.398-2.878
					c-1.42-0.699-2.772-1.537-4.163-2.297c-1.959-1.071-3.929-2.121-5.888-3.192c-1.188-0.649-2.406-1.244-3.53-2.007
					c-0.064,0.342,0.181,0.67-0.038,1.042c-1.043,1.772-1.866,3.666-2.934,5.426c0.763,0.403,1.529,0.801,2.29,1.209
					c1.892,0.767,3.738,1.622,5.294,3.02c0.274-0.056,0.615,0.168,0.9,0.323c2.547,1.383,5.103,2.748,7.639,4.15
					c1.543,0.853,3.072,1.744,4.63,2.555c2.804,1.458,5.549,3.026,8.35,4.487c0.765,0.399,1.493,0.869,2.303,1.177
					C248.215,419.601,248.604,419.007,248.923,418.376z"/>
				<path style="fill:#A8BADE;" d="M219.424,396.823c0.385,0.424,0.307,0.778,0.02,1.271c-0.907,1.56-1.626,3.227-2.56,4.777
					c-0.114,0.189-0.178,0.392-0.432,0.42c-3.274-1.724-6.124-4.023-8.834-6.522c-1.303-1.202-2.656-2.349-3.998-3.507
					c-0.435-0.375-0.656-0.959-1.228-1.203c-0.177-0.075-0.125-0.294-0.075-0.459c0.072-0.237,0.259-0.177,0.417-0.136
					c2.401,0.621,4.806,1.227,7.2,1.876c1.5,0.407,2.998,0.834,4.47,1.334c1.543,0.524,3.07,1.107,4.493,1.93
					C219.061,396.699,219.248,396.751,219.424,396.823z"/>
				<path style="fill:#A8BADE;" d="M227.131,406.049c-0.302,0.17-0.651,0.044-0.932-0.109c-1.669-0.909-3.378-1.745-4.984-2.771
					c-0.419-0.268-0.633-0.628-0.404-1.09c0.266-0.534,0.557-1.106,1.326-0.955c0.233,0.046,0.467,0.13,0.677,0.242
					c1.471,0.788,2.941,1.578,4.399,2.389c0.471,0.263,0.92,0.611,0.813,1.239C227.944,405.48,227.713,405.903,227.131,406.049z"/>
			</g>
			<g>
				<path style="fill:#A8BADE;" d="M371.581,279.397l101.802,72.039c1.23,0.871,1.539,2.589,0.687,3.818l-46.9,67.587
					c-0.853,1.229-2.557,1.522-3.788,0.651l-101.802-72.039c-1.23-0.871-1.539-2.589-0.687-3.818l46.9-67.587
					C368.647,278.82,370.351,278.527,371.581,279.397z"/>
				<polygon style="fill:#206194;" points="372.068,287.162 449.178,341.728 405.748,404.314 328.639,349.748 				"/>
				<path style="fill:#206194;" d="M416.062,401.252l12.5,8.845c1.23,0.871,1.539,2.589,0.687,3.818l-1.377,1.985
					c-0.853,1.229-2.557,1.522-3.788,0.651l-12.5-8.845c-1.23-0.871-1.539-2.589-0.687-3.818l1.377-1.985
					C413.127,400.674,414.831,400.381,416.062,401.252z"/>
				<path style="fill:#206194;" d="M422.269,392.306l12.5,8.845c1.23,0.871,1.539,2.589,0.687,3.818l-1.377,1.985
					c-0.853,1.229-2.557,1.522-3.788,0.651l-12.5-8.845c-1.23-0.871-1.539-2.589-0.687-3.818l1.377-1.985
					C419.334,391.729,421.039,391.436,422.269,392.306z"/>
				<path style="fill:#206194;" d="M428.477,383.361l12.5,8.845c1.23,0.871,1.539,2.589,0.687,3.818l-1.377,1.985
					c-0.853,1.229-2.557,1.522-3.788,0.651l-12.5-8.845c-1.23-0.871-1.539-2.589-0.687-3.818l1.377-1.985
					C425.542,382.783,427.246,382.49,428.477,383.361z"/>
				<path style="fill:#206194;" d="M441.65,364.377l12.5,8.845c1.23,0.871,1.539,2.589,0.687,3.818l-1.377,1.985
					c-0.853,1.229-2.557,1.522-3.788,0.651l-12.5-8.845c-1.23-0.871-1.539-2.589-0.687-3.818l1.377-1.985
					C438.715,363.799,440.42,363.506,441.65,364.377z"/>
				<path style="fill:#206194;" d="M447.858,355.431l12.5,8.845c1.23,0.871,1.539,2.589,0.687,3.818l-1.377,1.985
					c-0.853,1.229-2.557,1.522-3.788,0.651l-12.5-8.845c-1.23-0.871-1.539-2.589-0.687-3.818l1.377-1.985
					C444.923,354.854,446.627,354.56,447.858,355.431z"/>
				<path style="fill:#206194;" d="M454.065,346.486l12.5,8.845c1.23,0.871,1.539,2.589,0.687,3.818l-1.377,1.985
					c-0.853,1.229-2.557,1.522-3.788,0.651l-12.5-8.845c-1.23-0.871-1.539-2.589-0.687-3.818l1.377-1.985
					C451.13,345.908,452.834,345.615,454.065,346.486z"/>
				
					<ellipse transform="matrix(0.8676 -0.4972 0.4972 0.8676 -131.3478 268.2136)" style="fill:#206194;" cx="438.02" cy="380.772" rx="5.361" ry="5.425"/>
			</g>
		</g>
		<g>
			<path style="fill:#065B88;" d="M172.645,207.375c-44.665,21.015-89.327,42.02-133.944,63.013
				c0.354,0.145,0.916,0.405,1.492,0.612c30.796,11.089,61.596,22.18,92.394,33.264c4.671,1.681,4.673,1.658,6.391-3.115
				c10.997-30.539,21.991-61.072,32.973-91.616C172.247,208.706,172.814,207.905,172.645,207.375z M125.397,284.957
				c-10.768-3.864-21.535-7.745-32.305-11.621l-13.544-4.874c21.814-10.268,43.747-20.591,65.58-30.864
				c-5.514,15.322-11.16,30.944-16.739,46.591C127.68,286.178,126.543,285.369,125.397,284.957z"/>
			<path style="fill:#3D9BD2;" d="M76.947,280.129c-0.585,0.868-0.561,2.511-1.904,1.891c-1.384-0.639-0.275-1.912,0.031-2.83
				c0.275-0.825,0.396-2.385,1.75-1.777C78.318,278.084,76.772,279.275,76.947,280.129z"/>
			<path style="fill:#3A98CF;" d="M85.119,283.058c-0.46,0.842-0.513,2.377-1.832,1.864c-1.529-0.595-0.362-1.857-0.084-2.749
				c0.259-0.831,0.363-2.371,1.719-1.856C86.467,280.903,85.174,282.137,85.119,283.058z"/>
			<path style="fill:#3A98CF;" d="M68.747,277.276c-0.532,0.692-0.397,2.363-1.799,1.765c-1.443-0.616-0.407-1.888-0.09-2.808
				c0.288-0.834,0.402-2.374,1.765-1.788C70.091,275.075,68.795,276.292,68.747,277.276z"/>
			<path style="fill:#3997CE;" d="M101.137,288.73c-0.49,0.782-0.429,2.388-1.7,2.028c-1.559-0.442-0.67-1.799-0.302-2.718
				c0.354-0.883,0.354-2.591,1.921-1.929C102.325,286.647,101.243,287.83,101.137,288.73z"/>
			<path style="fill:#3A99D0;" d="M133.432,300.54c-0.551,0.702-0.414,2.385-1.815,1.782c-1.436-0.618-0.397-1.893-0.082-2.817
				c0.286-0.835,0.393-2.376,1.769-1.78C134.776,298.364,133.472,299.572,133.432,300.54z"/>
			<path style="fill:#3590C7;" d="M115.355,293.936c0.599-0.912,0.543-2.518,1.921-1.984c1.543,0.598,0.41,1.863,0.137,2.784
				c-0.262,0.884-0.482,2.345-1.8,1.841C114,295.96,115.589,294.736,115.355,293.936z"/>
			<path style="fill:#3D9BD3;" d="M107.316,290.9c0.498-0.738,0.365-2.31,1.732-1.906c1.452,0.429,0.554,1.655,0.247,2.46
				c-0.335,0.878-0.336,2.544-1.836,2.005C106.131,292.982,107.227,291.791,107.316,290.9z"/>
			<path style="fill:#47A9E3;" d="M92.969,285.688c-0.52,0.699-0.345,2.261-1.479,1.918c-1.479-0.446-0.316-1.651-0.074-2.437
				c0.232-0.754,0.251-2.241,1.378-1.905C94.321,283.718,92.861,284.87,92.969,285.688z"/>
			<path style="fill:#44A9E3;" d="M60.705,273.952c-0.595,0.797-0.427,2.361-1.559,2.013c-1.472-0.452-0.309-1.658-0.071-2.448
				c0.228-0.755,0.247-2.241,1.383-1.905C62.039,272.081,60.395,273.234,60.705,273.952z"/>
			<path style="fill:#45A9E3;" d="M125.354,297.177c-0.56,0.698-0.273,2.382-1.584,2.064c-1.286-0.312-0.381-1.52-0.099-2.231
				c0.323-0.815,0.248-2.4,1.517-2.096C126.487,295.225,125.386,296.373,125.354,297.177z"/>
		</g>
		<g>
			<path style="fill:#FFD600;" d="M210.266,199.235c0.636-2.085,2.665-2.621,4.172-3.622c6.899-4.584,13.899-9.013,20.864-13.498
				c0.587-0.378,1.123-0.94,1.925-0.556c-2.077,4.262-5.46,7.339-9.135,10.097C222.775,195.649,216.977,198.563,210.266,199.235z"/>
			<path style="fill:#003160;" d="M78.716,218.369c2.081,0.501,4.221,0.371,6.201,2.077c1.499,1.278,1.986,3.548,2.69,5.516
				c5.897,16.424,11.876,32.788,17.781,49.204c8.055,22.383,16.188,44.714,24.227,67.106c0.484,1.348,1.237,2.675,0.85,4.264
				l0.001,0.007c0.152,3.69-1.879,5.753-2.601,8.79c-9.004-24.802-18.02-49.588-27.011-74.391
				c-7.449-20.553-14.864-41.124-22.295-61.686C78.613,218.953,78.671,218.376,78.716,218.369z"/>
			<path style="fill:#003160;" d="M100.757,220.736c13.772,38.754,27.54,77.509,41.307,116.264c0.228,0.639,0.419,1.305,0.625,1.954
				c-1.76,1.086-3.51,2.211-5.635,0.989l-0.005,0.001l-0.001-0.007c-1.237-0.744-1.55-2.46-2.068-3.916
				c-9.561-26.84-19.092-53.697-28.59-80.573c-3.522-9.957-7.006-19.933-10.566-29.871c-0.451-1.246-1.11-2.494-0.693-3.941
				C95.926,219.47,98.956,218.99,100.757,220.736z"/>
			<path style="fill:#003160;" d="M183.455,147.934c-0.247,2.067-0.058,4.224-1.136,6.135c-0.807,1.447-2.342,1.83-3.66,2.447
				c-10.996,5.161-21.947,10.408-32.937,15.577c-14.985,7.053-29.93,14.186-44.921,21.222c-0.903,0.424-1.778,1.119-2.886,0.656
				l-0.004,0.001c-2.525-0.019-4.035-2.156-6.153-3.023c16.6-7.894,33.189-15.8,49.791-23.68
				c13.757-6.528,27.528-13.022,41.292-19.533C183.05,147.804,183.449,147.889,183.455,147.934z"/>
			<path style="fill:#003160;" d="M182.857,169.972c-25.953,12.035-51.906,24.066-77.859,36.097
				c-0.428,0.199-0.876,0.36-1.312,0.537c-0.827-1.819-1.68-3.63-0.941-5.709l-0.001-0.005l0.004-0.001
				c0.453-1.208,1.616-1.443,2.591-1.896c17.973-8.358,35.959-16.686,53.96-24.98c6.669-3.076,13.352-6.112,20.006-9.227
				c0.834-0.395,1.66-1,2.672-0.513C183.501,165.176,183.972,168.244,182.857,169.972z"/>
			<path style="fill:#007FF1;" d="M210.266,199.235c-23.247,10.812-17.098,19.652-27.896-2.448
				c-22.524-55.813-0.768-52.875,20.366-68.458c23.427,0.688,43.154,24.364,52.845,38.64
				C245.685,179.347,224.284,188.123,210.266,199.235z"/>
			<path style="fill:#007FF1;" d="M173.996,138.519c-1.401-2.202-2.9-4.348-4.184-6.618c-3.703-6.545-1.818-14.8,4.261-19.027
				c6.193-4.306,14.521-3.1,19.25,2.859c1.125,1.418,1.987,3.047,3.041,4.527c0.625,0.878,0.911,2.069,2.081,2.486
				c0.126,1.171-0.914,1.386-1.569,1.812c-6.921,4.499-13.861,8.969-20.753,13.514C175.494,138.488,174.851,139.091,173.996,138.519
				z"/>
			<path style="fill:#003160;" d="M173.996,138.519c6.249-3.999,12.503-7.991,18.746-12c1.918-1.232,3.805-2.514,5.705-3.773
				c0.876-0.76,1.51-0.763,2.142,0.399c0.932,1.712,2.039,3.327,3.072,4.983c-5.519,4.173-11.5,7.632-17.27,11.415
				c-3.345,2.193-6.567,4.6-10.178,6.361c-0.906-1.457-1.68-3.025-2.754-4.341C172.325,140.173,172.561,139.307,173.996,138.519z"/>
			<ellipse style="fill:#003160;" cx="85.073" cy="208.641" rx="21.493" ry="21.752"/>
			<g>
				<path style="fill:#007FF1;" d="M137.846,372.567L137.846,372.567c-8.785,1.354-17.068-4.812-18.406-13.703l-1.484-9.862
					c-1.338-8.891,4.755-17.273,13.54-18.627h0c8.785-1.354,17.068,4.812,18.406,13.703l1.484,9.862
					C152.724,362.831,146.631,371.213,137.846,372.567z"/>
			</g>
			<path style="fill:#003160;" d="M181.323,359.149c5.159,0.066,10.144-1.276,15.204-1.986c1.759-0.247,2.617-0.038,2.689,1.947
				c0.094,2.605,1.985,5.848,0.587,7.551c-1.219,1.484-4.689,1.106-7.174,1.49c-36.239,5.598-72.483,11.166-108.713,16.826
				c-2.139,0.334-2.951-0.094-3.055-2.303c-0.09-1.902-0.432-3.81-0.847-5.674c-0.336-1.512,0.211-1.926,1.6-2.111
				c4.064-0.541,8.108-1.227,12.163-1.836c3.099-0.466,6.231-0.781,9.077-2.274c0.933-0.027,1.86-0.002,2.797-0.148
				c23.505-3.668,47.02-7.265,70.53-10.9C177.888,359.467,179.605,359.302,181.323,359.149z"/>
			<path style="fill:#003160;" d="M125.663,362.876c9.917-2.184,19.932-3.717,30.039-4.645c7.791-0.463,15.577-0.588,23.341,0.426
				c0.768,0.1,1.52,0.325,2.28,0.492c-1.193,0.65-2.473,0.964-3.813,1.17c-24.009,3.681-48.015,7.388-72.023,11.08
				c-0.941,0.145-2.005,0.669-2.632-0.62c5.375-3.041,11.282-4.64,17.115-6.43C121.842,363.775,123.764,363.363,125.663,362.876z"/>
		</g>
		<g>
			<path style="fill:#FDFDFC;" d="M282.012,267.605l16.382-121.869c0.25-1.857,1.958-3.162,3.797-2.9l22.538,3.213
				c1.839,0.262,3.139,1.996,2.889,3.853l-16.382,121.869c-0.25,1.857-1.958,3.162-3.797,2.9l-22.538-3.213
				C283.063,271.196,281.763,269.462,282.012,267.605z"/>
			<path style="fill:#FFEF4D;" d="M322.296,165.854c-0.218,0.3-0.508,0.185-0.756,0.151c-2.602-0.353-5.202-0.714-7.802-1.085
				c-3.456-0.493-6.903-1.055-10.368-1.484c-1.029-0.127-2.052-0.302-3.089-0.374c-0.635-0.044-1.012-0.403-0.92-1.071
				c0.281-2.038,0.656-4.065,0.872-6.11c0.277-2.617,0.692-5.213,1.001-7.824c0.191-1.612,0.134-1.643,1.749-1.422
				c4.511,0.62,9.02,1.262,13.529,1.895c2.431,0.341,4.861,0.695,7.296,1.011c0.494,0.064,0.669,0.222,0.599,0.737
				c-0.388,2.873-0.693,5.757-1.16,8.62c-0.249,1.524-0.363,3.071-0.563,4.604C322.581,164.297,322.424,165.084,322.296,165.854z"/>
			<path style="fill:#FFEE2B;" d="M319.88,183.984c-0.219,0.213-0.453,0.15-0.689,0.116c-5.838-0.85-11.669-1.762-17.521-2.495
				c-1.352-0.169-1.948-0.726-2.346-1.912c-0.457-1.359-1.034-2.677-1.578-4.006c-0.323-0.788,0.003-1.54,0.098-2.294
				c0.338-2.697,0.786-5.379,1.073-8.081c0.088-0.826,0.439-0.852,1.027-0.767c2.226,0.321,4.45,0.652,6.677,0.965
				c2.982,0.42,5.965,0.824,8.947,1.242c1.904,0.267,3.807,0.545,5.709,0.828c0.546,0.081,0.796,0.312,0.698,0.973
				c-0.534,3.603-1.019,7.214-1.507,10.824c-0.164,1.215-0.286,2.436-0.434,3.654C319.994,183.357,319.929,183.679,319.88,183.984z"
				/>
			<path style="fill:#FFD600;" d="M316.703,202.207c-1.904-0.452-3.853-0.585-5.779-0.882c-0.849-0.131-1.7-0.251-2.553-0.351
				c-0.346-0.041-0.508-0.215-0.635-0.53c-2.257-5.601-4.524-11.199-6.792-16.796c-0.072-0.177-0.092-0.343-0.01-0.539
				c5.973,0.848,11.947,1.701,17.924,2.536c0.508,0.071,0.793,0.263,0.72,0.796c-0.707,5.176-1.421,10.351-2.133,15.527
				C317.26,202.243,317.03,202.376,316.703,202.207z"/>
			<path style="fill:#FDFDFC;" d="M300.309,265.6l-44.544-114.783c-0.679-1.749,0.179-3.734,1.906-4.411l21.168-8.297
				c1.727-0.677,3.695,0.2,4.374,1.95l44.544,114.783c0.679,1.749-0.179,3.734-1.906,4.411l-21.168,8.297
				C302.956,268.226,300.988,267.349,300.309,265.6z"/>
			<path style="fill:#FF444B;" d="M271.037,182.095c-0.066-0.169-0.132-0.338-0.198-0.508c-1.493-3.881-2.962-7.772-4.499-11.635
				c-0.324-0.816-0.185-1.114,0.618-1.424c6.587-2.545,13.161-5.124,19.724-7.731c0.753-0.299,1.023-0.126,1.299,0.596
				c1.729,4.533,3.503,9.049,5.255,13.573c0.376,0.972,0.281,1.197-0.682,1.543c-6.533,2.348-12.937,5.034-19.417,7.52
				c-1.146,0.439-1.141,0.445-1.583-0.682C271.388,182.927,271.21,182.512,271.037,182.095z"/>
			<path style="fill:#FF000E;" d="M306.766,210.022c-6.973,2.739-13.95,5.47-20.915,8.231c-0.597,0.237-0.751,0.019-0.941-0.479
				c-1.125-2.95-2.271-5.892-3.421-8.833c-0.767-1.961-1.551-3.915-2.328-5.872c0.112-0.354,0.459-0.347,0.718-0.449
				c6.672-2.624,13.348-5.239,20.024-7.854c0.934-0.366,0.979-0.344,1.356,0.627c1.787,4.6,3.574,9.199,5.349,13.804
				C306.707,209.451,306.978,209.699,306.766,210.022z"/>
			<path style="fill:#FF6078;" d="M270.191,147.676c3.27-1.282,6.547-2.545,9.804-3.859c0.752-0.303,1.106-0.172,1.405,0.612
				c1.735,4.558,3.504,9.102,5.289,13.641c0.254,0.646,0.169,0.948-0.505,1.21c-6.659,2.585-13.31,5.193-19.953,7.818
				c-0.644,0.255-0.935,0.155-1.193-0.521c-1.761-4.612-3.547-9.215-5.358-13.807c-0.267-0.677-0.114-0.948,0.531-1.195
				C263.545,150.297,266.865,148.98,270.191,147.676z"/>
			<path style="fill:#F83036;" d="M278.586,201.429c-0.011-0.055-0.039-0.097-0.086-0.127c-0.238-0.201-0.349-0.479-0.458-0.759
				c-0.878-2.262-1.756-4.523-2.633-6.785c-0.109-0.281-0.213-0.561-0.183-0.87c-0.763-1.97-1.526-3.941-2.289-5.911
				c-0.561-0.744-0.488-1.184,0.283-1.422c1.311-0.406,2.565-0.96,3.841-1.457c5.413-2.11,10.819-4.237,16.229-6.355
				c0.953-0.373,0.979-0.361,1.359,0.618c1.779,4.578,3.545,9.161,5.342,13.732c0.26,0.66,0.234,1.011-0.504,1.297
				c-6.75,2.618-13.486,5.271-20.229,7.908C279.049,201.381,278.843,201.554,278.586,201.429z"/>
			<g>
				<path style="fill:#FCFDFD;" d="M286.761,255.11l94.279-78.943c1.437-1.203,3.578-1.014,4.759,0.419l14.475,17.571
					c1.181,1.433,0.972,3.591-0.465,4.794l-94.279,78.943c-1.437,1.203-3.578,1.014-4.759-0.419l-14.475-17.571
					C285.115,258.47,285.324,256.313,286.761,255.11z"/>
				<path style="fill:#4DDDFF;" d="M385.122,207.141c-0.363,0.074-0.5-0.206-0.661-0.398c-1.683-2.015-3.36-4.036-5.029-6.062
					c-2.22-2.695-4.385-5.434-6.656-8.088c-0.674-0.788-1.312-1.607-2.029-2.359c-0.439-0.461-0.475-0.979,0.043-1.411
					c1.582-1.316,3.226-2.56,4.765-3.924c1.97-1.745,4.026-3.383,6.016-5.102c1.228-1.061,1.207-1.123,2.25,0.13
					c2.913,3.5,5.809,7.015,8.712,10.523c1.565,1.892,3.121,3.791,4.706,5.666c0.321,0.38,0.344,0.615-0.055,0.948
					c-2.224,1.86-4.394,3.784-6.67,5.583c-1.212,0.958-2.339,2.023-3.52,3.02C386.382,206.183,385.736,206.659,385.122,207.141z"/>
				<path style="fill:#2BD6FF;" d="M371.112,218.898c-0.305,0.009-0.436-0.194-0.587-0.379c-3.738-4.564-7.429-9.17-11.255-13.658
					c-0.884-1.037-0.948-1.849-0.443-2.994c0.579-1.311,1.042-2.674,1.536-4.022c0.293-0.8,1.041-1.135,1.619-1.628
					c2.068-1.763,4.208-3.442,6.242-5.243c0.622-0.551,0.898-0.333,1.275,0.126c1.427,1.738,2.847,3.482,4.279,5.215
					c1.918,2.321,3.849,4.631,5.769,6.951c1.226,1.481,2.444,2.97,3.657,4.461c0.348,0.428,0.378,0.767-0.141,1.189
					c-2.824,2.3-5.617,4.64-8.413,6.976c-0.941,0.786-1.854,1.606-2.784,2.405C371.619,218.513,371.354,218.707,371.112,218.898z"/>
				<path style="fill:#00D2FF;" d="M356.478,230.213c-1.101-1.617-2.451-3.03-3.673-4.548c-0.539-0.669-1.086-1.332-1.648-1.981
					c-0.228-0.263-0.23-0.501-0.111-0.819c2.111-5.658,4.211-11.32,6.31-16.983c0.066-0.179,0.163-0.316,0.356-0.404
					c3.839,4.654,7.675,9.313,11.525,13.96c0.327,0.395,0.408,0.729-0.005,1.073c-4.013,3.345-8.03,6.685-12.046,10.026
					C356.865,230.615,356.605,230.558,356.478,230.213z"/>
				<path style="fill:#FCFDFD;" d="M301.623,265.967l44.512-114.795c0.678-1.749,2.65-2.637,4.382-1.972l21.226,8.148
					c1.732,0.665,2.593,2.64,1.915,4.389l-44.512,114.795c-0.678,1.749-2.65,2.637-4.382,1.972l-21.226-8.148
					C301.807,269.692,300.945,267.717,301.623,265.967z"/>
				<path style="fill:#7C44FF;" d="M336.32,184.567c0.065-0.17,0.131-0.339,0.196-0.509c1.514-3.873,3.053-7.736,4.524-11.625
					c0.31-0.821,0.615-0.947,1.417-0.635c6.58,2.563,13.173,5.092,19.778,7.592c0.758,0.287,0.841,0.597,0.557,1.316
					c-1.78,4.513-3.516,9.044-5.273,13.567c-0.377,0.971-0.6,1.073-1.544,0.68c-6.408-2.672-12.947-5.007-19.409-7.541
					c-1.142-0.448-1.142-0.441-0.71-1.571C336.018,185.418,336.166,184.991,336.32,184.567z"/>
				<path style="fill:#4C00FF;" d="M343.871,229.282c-6.996-2.68-13.989-5.368-20.994-8.026c-0.6-0.228-0.567-0.492-0.372-0.988
					c1.159-2.937,2.297-5.882,3.431-8.829c0.756-1.965,1.494-3.937,2.241-5.906c0.321-0.187,0.573,0.053,0.833,0.152
					c6.696,2.562,13.39,5.132,20.082,7.703c0.936,0.36,0.955,0.407,0.579,1.378c-1.783,4.601-3.564,9.203-5.359,13.8
					C344.212,228.821,344.245,229.186,343.871,229.282z"/>
				<path style="fill:#8C60FF;" d="M358.905,158.581c3.279,1.258,6.551,2.536,9.842,3.762c0.76,0.283,0.933,0.619,0.624,1.399
					c-1.792,4.535-3.551,9.084-5.293,13.639c-0.248,0.648-0.515,0.814-1.189,0.553c-6.66-2.582-13.33-5.141-20.006-7.682
					c-0.647-0.246-0.795-0.516-0.529-1.189c1.81-4.593,3.595-9.196,5.354-13.809c0.259-0.68,0.555-0.777,1.198-0.524
					C352.23,156.035,355.57,157.301,358.905,158.581z"/>
				<path style="fill:#6D30F8;" d="M328.856,203.935c0.029-0.048,0.036-0.098,0.022-0.152c-0.04-0.309,0.065-0.589,0.174-0.87
					c0.877-2.262,1.754-4.524,2.631-6.786c0.109-0.281,0.221-0.558,0.452-0.766c0.765-1.969,1.531-3.939,2.296-5.908
					c0.087-0.928,0.438-1.203,1.168-0.859c1.242,0.585,2.542,1.021,3.819,1.514c5.42,2.092,10.846,4.167,16.27,6.251
					c0.955,0.367,0.967,0.394,0.587,1.373c-1.774,4.58-3.56,9.156-5.315,13.743c-0.253,0.662-0.51,0.904-1.247,0.618
					c-6.75-2.619-13.513-5.203-20.27-7.802C329.23,204.21,328.962,204.2,328.856,203.935z"/>
			</g>
		</g>
		<g>
			<path style="fill:#FDFDFC;" d="M258.222,365.067c-1.261-0.09-2.523-0.258-3.784-0.259c-25.425-0.015-50.85-0.11-76.274,0.077
				c-4.973,0.037-8.51-2.508-8.066-8.21c0.352-4.519,0.203-9.093,0.019-13.632c-0.099-2.44,0.825-3.046,3.039-2.951
				c3.416,0.147,6.843,0.044,10.266,0.044c68.451-0.001,136.902-0.002,205.353-0.003c4.519,0,4.513,0.002,4.505,4.435
				c-0.008,4.349,0.028,8.698-0.013,13.046c-0.046,4.927-2.26,7.166-7.157,7.169c-26.109,0.014-52.218-0.003-78.327,0.01
				c-1.262,0.001-2.523,0.173-3.785,0.266c-1.191,0.846-2.559,0.823-3.924,0.824c-12.643,0.011-25.286,0.011-37.93-0.001
				C260.784,365.882,259.408,365.935,258.222,365.067z"/>
			<path style="fill:#D0D0D0;" d="M251.357,386.578c2.227-5,3.622-10.29,5.268-15.492c0.325-1.026,0.513-2.096,1.224-2.952
				c1.234-0.901,2.607-1.202,4.127-1.201c12.978,0.006,25.956-0.007,38.934,0.015c1.385,0.002,2.748,0.051,3.795,1.166
				c0.459,0.184,0.864,0.412,1.022,0.946c1.596,5.396,3.106,10.82,5.27,16.027c0.179,0.43,0.105,0.967,0.149,1.454
				c-0.83,1.257-2.131,1.262-3.402,1.266c-17.654,0.054-35.309,0.052-52.963,0.001C253.51,387.805,252.209,387.81,251.357,386.578z"
				/>
			<path style="fill:#F6F9F9;" d="M251.357,386.578c19.93-0.012,39.859-0.024,59.789-0.036c2.521,0.028,5.042,0.057,7.562,0.085
				c0,0-0.012-0.009-0.012-0.009c0.701,2.82-0.485,3.492-3.185,3.48c-22.563-0.098-45.127-0.058-67.691-0.061
				c-0.586,0-1.172,0-1.758-0.021c-1.061-0.038-1.595-0.58-1.592-1.68c0.002-1.11,0.576-1.641,1.615-1.672
				C247.841,386.613,249.599,386.604,251.357,386.578z"/>
			<path style="fill:#9B9B9E;" d="M304.705,368.114c-15.619,0.007-31.239,0.014-46.857,0.02c0.509-0.965,0.545-2.013,0.529-3.069
				c2.209-0.523,4.453-0.241,6.678-0.247c11.858-0.032,23.717-0.021,35.575-0.002c1.157,0.002,2.314,0.157,3.472,0.242
				C304.302,366.078,304.504,367.096,304.705,368.114z"/>
			<path style="fill:#353537;" d="M281.545,355.53c2.112,0.079,3.105,1.136,3.16,3.143c0.056,2.037-1.189,3.152-2.92,3.272
				c-1.922,0.133-3.094-1.357-3.142-3.143C278.594,357.009,279.597,355.64,281.545,355.53z"/>
			<g>
				<g>
					<path style="fill:#004476;" d="M389.285,212.712h-214.97c-2.2,0-4,1.8-4,4v132.28c0,2.2,1.8,4,4,4h214.97c2.2,0,4-1.8,4-4
						v-132.28C393.285,214.512,391.485,212.712,389.285,212.712z M238.025,222.832h-42.33"/>
				</g>
				<path style="fill:#18395B;" d="M383.215,226.342v110.19c0,1.93-1.58,3.51-3.5,3.51h-197.87c-1.93,0-3.51-1.58-3.51-3.51v-110.19
					c0-1.93,1.58-3.51,3.51-3.51h197.87C381.635,222.832,383.215,224.412,383.215,226.342z"/>
				<linearGradient id="SVGID_1_" gradientUnits="userSpaceOnUse" x1="195.6952" y1="281.4818" x2="319.6552" y2="281.4818">
					<stop  offset="0" style="stop-color:#FFFFFF;stop-opacity:0.3"/>
					<stop  offset="1" style="stop-color:#FFFFFF;stop-opacity:0"/>
				</linearGradient>
				<polygon style="fill:url(#SVGID_1_);" points="319.655,340.132 277.045,340.132 276.985,340.042 195.695,222.832 
					238.025,222.832 319.595,340.042 				"/>
			</g>
			
				<linearGradient id="SVGID_00000076587838494389069260000000047538878195140251_" gradientUnits="userSpaceOnUse" x1="253.7352" y1="281.4368" x2="353.6952" y2="281.4368">
				<stop  offset="0" style="stop-color:#FFFFFF;stop-opacity:0.3"/>
				<stop  offset="1" style="stop-color:#FFFFFF;stop-opacity:0"/>
			</linearGradient>
			<polygon style="fill:url(#SVGID_00000076587838494389069260000000047538878195140251_);" points="353.695,340.042 
				336.255,340.042 253.735,222.832 270.725,222.832 			"/>
			
				<linearGradient id="SVGID_00000139978129893905945200000013878314505587708580_" gradientUnits="userSpaceOnUse" x1="293.2852" y1="283.7018" x2="393.2852" y2="283.7018">
				<stop  offset="0" style="stop-color:#FFFFFF;stop-opacity:0.3"/>
				<stop  offset="1" style="stop-color:#FFFFFF;stop-opacity:0"/>
			</linearGradient>
			<polygon style="fill:url(#SVGID_00000139978129893905945200000013878314505587708580_);" points="393.285,344.572 
				379.715,340.042 293.285,222.832 304.595,222.832 383.215,330.752 			"/>
		</g>
		<g>
			<path style="fill:#FFD600;" d="M89.75,335.052c0.008-0.069,0.013-0.139,0.012-0.212c-0.056-0.419-0.266-0.75-0.573-1.024
				c-1.717-1.535-3.477-3.018-5.262-4.47c-0.362-0.294-0.762-0.438-1.229-0.327c-0.381,0.436-0.773,0.863-1.142,1.309
				c-8.281,9.996-16.561,19.992-24.837,29.992c-1.052,1.271-2.08,2.561-3.12,3.843c0.008,0.132-0.038,0.299,0.044,0.391
				c1.988,2.223,4.075,4.324,6.824,5.594c0.085-0.017,0.166-0.04,0.244-0.067c2.17,2.007,4.376,3.97,6.789,5.682
				c0.181-0.198,0.37-0.388,0.541-0.594c9.243-11.156,18.485-22.314,27.724-33.474c0.256-0.309,0.479-0.645,0.718-0.968
				C94.239,338.835,91.995,336.944,89.75,335.052z"/>
			<path style="fill:#FFF7BD;" d="M114.234,296.288c2.862,2.428,5.724,4.855,8.585,7.283c0.098,0.638-0.203,1.119-0.584,1.581
				c-1.989,2.412-3.944,4.854-5.999,7.209c-1.583,1.814-3.798,2.209-5.747,1.127c-0.554-0.655-1.21-1.219-1.98-1.548
				c-2.598-1.111-3.843-4.563-1.805-7.351c1.946-2.662,4.154-5.121,6.272-7.648C113.312,296.542,113.719,296.317,114.234,296.288z"
				/>
			<path style="fill:#CBCBCB;" d="M98.004,336.871c-0.345,0.418,0.016,0.98-0.341,1.513c-4.302-3.649-8.591-7.287-13.014-11.039
				c1.003-0.209,1.967-0.372,2.912-0.614c3.298-0.843,6.522-1.846,9.085-4.297c0.347-0.331,0.685-0.914,1.349-0.555
				c1.365,0.026,2.046,1.095,2.877,1.932c0.512,0.51,0.583,1.12,0.227,1.71C98.994,329.007,98.647,332.979,98.004,336.871z"/>
			<path style="fill:#FFD600;" d="M122.819,303.571c-2.279,2.751-4.541,5.516-6.842,8.248c-1.489,1.768-3.11,2.132-5.208,1.262
				c0,0,0,0,0,0c-0.783-0.655-1.545-1.319-2.447-1.831c-1.559-0.885-2.467-3.138-1.96-4.576c0.373-1.059,0.892-2.01,1.635-2.878
				c2.116-2.47,4.163-5.001,6.238-7.508c-0.43-0.387-0.84-0.802-1.295-1.156c-0.885-0.688-1.733-0.605-2.45,0.264
				c-3.637,4.406-7.265,8.819-10.896,13.23c0.02,0.654,0.47,1.026,0.906,1.404c1.369,1.188,2.751,2.36,4.145,3.517
				c0.504,0.418,0.96,0.933,1.665,1.028c0.074,0.003,0.142-0.004,0.21-0.011c0.012,0.483,0.315,0.812,0.659,1.114
				c1.608,1.414,3.243,2.794,4.894,4.156c0.391,0.323,0.806,0.559,1.336,0.459c3.769-4.544,7.538-9.088,11.306-13.632
				C125.123,304.977,123.878,304.333,122.819,303.571z"/>
			<path style="fill:#004476;" d="M106.519,314.425c2.296,1.956,4.593,3.912,6.888,5.868c-0.094,0.151-0.177,0.312-0.284,0.453
				c-1.106,1.455-1.104,1.451-2.537,0.242c-3.504-2.957-7.012-5.911-10.518-8.866c-0.12-0.126-0.232-0.261-0.36-0.378
				c-1.658-1.509-1.659-1.508-0.115-3.118C101.901,310.559,104.21,312.492,106.519,314.425z"/>
			<path style="fill:#FFD600;" d="M101.321,323.708c-0.18,0.176-0.361,0.352-0.541,0.528c-0.928-0.786-1.857-1.571-2.785-2.357
				c1.293-2.675,3.519-1.39,5.571-1.327C103.082,321.85,101.919,322.582,101.321,323.708z"/>
			<path style="fill:#004476;" d="M96.199,340.666L83.11,329.359c-0.5-0.432-0.56-1.2-0.133-1.707l0.078-0.092
				c0.427-0.506,1.186-0.567,1.686-0.135l13.089,11.307c0.5,0.432,0.56,1.2,0.133,1.707l-0.078,0.092
				C97.458,341.038,96.7,341.098,96.199,340.666z"/>
			<path style="fill:#004476;" d="M66.19,376.245l-13.089-11.307c-0.5-0.432-0.56-1.2-0.133-1.707l0.078-0.092
				c0.427-0.506,1.186-0.567,1.686-0.135l13.089,11.307c0.5,0.432,0.56,1.2,0.133,1.707l-0.078,0.092
				C67.45,376.616,66.691,376.677,66.19,376.245z"/>
		</g>
		<g>
			<path style="fill:#EAF8F9;" d="M271.364,306.902c0.002-6.848-3.222-12.127-7.981-16.616c-1.345-1.269-2.042-2.329-1.025-4.317
				c5.616-10.986,11.086-22.048,16.628-33.073c0.155-0.309,0.557-0.49,1.305-1.119c0,3.562,0,6.64,0,9.718
				c0,4.868-0.033,9.736,0.016,14.603c0.017,1.665-0.156,2.922-1.717,4.113c-2.572,1.963-2.512,5.016-0.308,7.382
				c1.74,1.867,5.273,2.067,7.059,0.399c2.236-2.087,2.482-5.946-0.002-7.774c-1.74-1.28-1.853-2.657-1.851-4.394
				c0.005-7.301-0.007-14.603-0.005-21.904c0-0.56,0.057-1.12,0.706-1.852c1.685,3.229,3.401,6.442,5.049,9.691
				c4.043,7.971,8.01,15.982,12.111,23.922c0.93,1.802,0.919,2.949-0.708,4.407c-4.961,4.443-8.158,9.891-8.363,16.809
				c-0.7,1.419-2.017,1.472-3.318,1.494c-4.758,0.08-9.516,0.079-14.273,0C273.385,308.37,272.068,308.318,271.364,306.902z"/>
			<path style="fill:#FFD600;" d="M271.364,306.902c6.972-0.001,13.943-0.003,20.914-0.004c1.841,0.06,3.41,0.524,3.514,2.778
				c0.088,1.911-0.074,3.709-2.565,3.977c-1.565,0.169-1.442,1.436-1.456,2.536c-0.031,2.528-0.036,5.057-0.022,7.585
				c0.014,2.438-0.878,3.678-3.566,3.576c-4.29-0.164-8.595-0.09-12.889,0.042c-2.608,0.08-3.654-1.213-3.683-3.625
				c-0.032-2.629,0.001-5.259,0.038-7.888c0.015-1.064,0.026-1.968-1.356-2.26c-2.232-0.472-2.712-2.193-2.423-4.175
				C268.158,307.47,269.595,306.901,271.364,306.902z"/>
			<path style="fill:#EAF8F9;" d="M316.996,269.006c-0.538-16.801-12.595-30.647-28.443-33.714v-4.408h-12.24v3.645
				c-0.079,0.189-0.151,0.398-0.219,0.617c-16.359,2.768-28.877,16.981-29.254,34.231h-3.23v12.388h12.241v-12.388h-3.552
				c0.369-14.257,10.558-26.033,23.978-28.654c0.011,0.041,0.027,0.075,0.037,0.118v2.429h1.845
				c0.365,0.071,0.768,0.091,1.197,0.081c1.703-0.038,3.407-0.038,5.111-0.029c0.281,0.001,0.567-0.012,0.839-0.052h3.248v-2.335
				c12.816,2.965,22.463,14.329,22.985,28.069h-3.784v12.388h5.483c0.815,0.087,1.63,0.104,2.436,0h4.321v-12.388H316.996z"/>
		</g>
		<g>
			<path style="fill:#258FDE;" d="M137.105,395.743c4.661,2.878,9.394,5.647,13.959,8.669c3.77,2.495,4.094,4.68,1.754,8.582
				c-4.855,8.097-4.9,8.125-12.738,3.264c-3.9-2.419-7.744-4.928-11.613-7.396C130.487,403.923,132.779,399.163,137.105,395.743z"/>
			<path style="fill:#F12D00;" d="M127.382,408.312c-3.871-2.404-7.721-4.845-11.625-7.195c-1.492-0.898-2.606-1.856-2.23-3.812
				c0.841-4.374,3.078-7.826,6.7-10.411c1.592-1.136,2.77-0.06,3.988,0.692c3.877,2.395,7.734,4.822,11.599,7.237
				C134.239,400.091,131.517,404.643,127.382,408.312z"/>
			<path style="fill:#A5C8DF;" d="M127.382,408.312c2.811-4.496,5.621-8.993,8.432-13.489c0.43,0.307,0.861,0.614,1.291,0.92
				c-2.767,4.448-5.251,9.082-8.64,13.119C128.105,408.678,127.744,408.495,127.382,408.312z"/>
		</g>
		<g>
			<path style="fill:#065B88;" d="M419.697,164.556c-6.18-1.57-12.36-3.137-18.539-4.71c-5.835-1.485-11.666-2.986-17.503-4.46
				c-1.412-0.357-1.36-1.009-0.708-2.133c3.066-5.285,6.059-10.612,9.076-15.925c3.706-6.527,7.388-13.069,11.122-19.58
				c2.452-4.276,5.038-8.477,7.437-12.783c0.767-1.377,1.143-1.138,2.071-0.177c8.274,8.575,16.596,17.104,24.917,25.635
				c0.534,0.548,0.862,1.126,0.798,1.897c0.474,0.939,0.02,1.75-0.397,2.534c-5.042,9.48-10.549,18.697-15.935,27.981
				C421.551,163.674,421.128,164.877,419.697,164.556z"/>
			<path style="fill:#007FF1;" d="M419.697,164.556c3.995-6.798,8.013-13.582,11.976-20.399c2.277-3.918,4.465-7.887,6.694-11.835
				c0.146-0.096,0.364-0.157,0.425-0.29c2.842-6.199,4.289-4.842,8.719-2.332c6.483,3.673,12.902,7.458,19.35,11.192
				c2.33,1.349,2.826,3.467,1.325,5.896c-0.974,1.576-2.048,3.093-2.675,4.859c0.099,1.42-0.576,2.592-1.265,3.734
				c-3.819,6.325-7.309,12.84-11.115,19.173c-0.584,0.971-0.986,2.138-2.276,2.471c-1.241,2.011-2.493,4.015-3.722,6.033
				c-1.29,2.12-2.817,3.009-5.197,1.415c-2.026-1.357-4.198-2.497-6.305-3.733c-0.322,0.174-0.675,0.294-1.023,0.164
				c-4.542-1.699-8.515-4.382-12.39-7.225c-0.204-0.15-0.244-0.465-0.292-0.73C417.347,170.375,417.242,169.981,419.697,164.556z"/>
			<path style="fill:#065B88;" d="M421.928,172.95c4.567,2.596,9.134,5.193,13.703,7.79c0.179,0.749,0.009,1.27-0.639,1.834
				c-5.077,4.412-10.1,8.887-15.143,13.337c-1.707,1.507-3.786,1.373-5.545,0.556c-1.705-0.791-2.685-2.487-2.715-4.556
				c-0.017-1.125,0.353-2.154,0.855-3.059c2.834-5.112,5.752-10.177,8.666-15.245C421.271,173.325,421.649,173.167,421.928,172.95z"
				/>
			<path style="fill:#065B88;" d="M450.855,177.026c1.751-4.303,4.363-8.148,6.694-12.123c2.605-4.442,4.79-9.15,7.962-13.254
				c3.344,2.062,4.52,5.607,2.698,8.912c-2.737,4.962-5.562,9.881-8.52,14.714C457.654,178.598,453.663,179.274,450.855,177.026z"/>
			<path style="fill:#007FF1;" d="M403.584,117.204c-3.531,6.001-7.103,11.911-10.478,17.931c-0.731,1.304-1.086,0.98-1.921,0.336
				c-5.909-4.563-5.037-14.851,1.585-18.348C396.307,115.255,399.858,115.057,403.584,117.204z"/>
		</g>
		<g>
			<path style="fill:#FE5159;" d="M420.763,262.108c-0.606-3.104,0.05-5.745,0.139-8.383c0.059-1.74-0.488-2.845-2.042-3.698
				c-4.159-2.285-8.252-4.689-12.361-7.064c-3.603-2.082-4.329-4.376-2.26-8.051c5.148-9.146,10.372-18.248,15.623-27.335
				c1.696-2.935,4.914-3.633,7.928-1.88c12.631,7.348,25.257,14.706,37.893,22.047c3.523,2.047,4.315,4.215,2.325,7.774
				c-5.17,9.246-10.443,18.435-15.747,27.605c-1.649,2.852-4.738,3.587-7.678,1.902c-4.356-2.496-8.66-5.082-12.964-7.667
				c-1.359-0.816-2.543-0.986-3.936,0.058C425.565,259.002,423.306,260.399,420.763,262.108z"/>
			<path style="fill:#F5FAFD;" d="M449.015,234.599c0.151,4.507-2.866,6.494-6.187,7.801c-3.529,1.39-7.271,2.274-11.109,2.56
				c-1.178,0.088-2.009-0.166-2.491-1.366c-1.773-4.418-3.498-8.844-3.441-13.712c0.039-3.32,1.849-6.02,4.715-7.134
				c2.827-1.098,6.562-0.207,8.574,2.21c1.063,1.277,2.094,2.131,3.915,2.308C446.435,227.599,449.031,231.06,449.015,234.599z"/>
		</g>
		<g>
			<path style="fill:#D0D0D0;" d="M373.591,412.752l-25.825-4.373c-0.573-0.097-1.077-0.398-1.304-0.888
				c-0.183-0.08-0.194-0.231-0.154-0.456c0.009-0.053,0.018-0.106,0.027-0.16c0-0.016-0.003-0.029-0.003-0.045
				c0.005-0.118,0.033-0.238,0.071-0.357c0.205-1.187,0.401-2.375,0.608-3.561c0.101-0.577-0.1-1.007-0.546-1.374
				c-0.45-0.37-0.978-0.498-1.525-0.591c-6.114-1.038-12.228-2.074-18.342-3.11c-0.34-0.058-0.68-0.095-1.028-0.065
				c-0.795,0.068-1.487,0.441-1.613,1.359c-0.179,1.306-0.446,2.6-0.641,3.905c-0.063,0.422-0.194,0.531-0.633,0.455
				c-4.354-0.752-8.713-1.479-13.07-2.213c-0.193-0.2-0.454-0.211-0.703-0.253c-0.641-0.106-0.787-0.003-0.911,0.651
				c-0.081,0.427-0.143,0.857-0.225,1.283c-0.015,0.079-0.041,0.146-0.073,0.206l-3.107-0.526c0.001-0.058,0.006-0.122,0.017-0.2
				c0.063-0.46,0.16-0.915,0.223-1.374c0.078-0.568-0.038-0.732-0.599-0.83c-1.105-0.193-2.212-0.377-3.319-0.563
				c-0.177-0.03-0.355-0.067-0.523,0.04c-1.343-0.229-2.687-0.454-4.029-0.689c-0.271-0.048-0.451-0.042-0.507,0.302
				c-0.44,2.691-0.894,5.38-1.344,8.069c0.175,0.039,0.349,0.085,0.525,0.115c0.947,0.161,1.895,0.321,2.842,0.481
				c0.518,0.562,1.214,0.966,2.021,1.103l54.664,9.256c0.744,0.126,1.474,0.008,2.112-0.293c4.964,0.837,9.927,1.68,14.891,2.52
				c0.634,0.107,0.686,0.079,0.796-0.559c0.407-2.36,0.803-4.722,1.202-7.084C373.576,412.871,373.585,412.811,373.591,412.752z"/>
			
				<rect x="291.877" y="413.929" transform="matrix(0.986 0.167 -0.167 0.986 75.372 -49.3588)" style="fill:#222222;" width="78.76" height="19.364"/>
			
				<rect x="288.893" y="431.553" transform="matrix(0.986 0.167 -0.167 0.986 78.2727 -48.6132)" style="fill:#D0D0D0;" width="78.76" height="19.364"/>
			<circle style="fill:#D1D2D4;" cx="330.785" cy="430.561" r="20.114"/>
			<path style="fill:#414143;" d="M314.349,427.787c1.388-8.63,9.62-14.61,18.391-13.136c8.834,1.484,14.572,9.796,13.141,18.429
				c-1.451,8.752-9.79,14.652-18.489,13.163C318.727,444.76,312.799,436.423,314.349,427.787z"/>
			<path style="fill:#202221;" d="M332.604,415.937c7.995,1.198,13.735,9.143,11.969,17.597
				c-1.524,7.297-8.706,13.045-17.242,11.429c-7.97-1.509-13.125-8.881-11.832-16.909
				C316.783,420.077,324.304,414.421,332.604,415.937z"/>
			<path style="fill:#211F20;" d="M328.821,404.716c0.195-1.151,0.399-2.3,0.579-3.453c0.046-0.294,0.124-0.401,0.45-0.344
				c3.654,0.63,7.31,1.245,10.966,1.865c0.188,0.032,0.396,0.022,0.339,0.334c-0.221,1.191-0.426,2.384-0.638,3.577
				c-0.11,0.072-0.229,0.054-0.348,0.032c-1.147-0.214-2.304-0.363-3.456-0.54c-0.059-0.009-0.118-0.021-0.176-0.034
				c-0.17-0.039-0.324-0.103-0.325-0.31c-0.002-0.224,0.154-0.351,0.344-0.333c0.49,0.046,0.564-0.265,0.618-0.632
				c0.079-0.533,0.176-1.064,0.267-1.595c0.053-0.311-0.053-0.482-0.373-0.536c-1.224-0.206-2.448-0.417-3.673-0.62
				c-0.31-0.051-0.484,0.058-0.538,0.375c-0.103,0.605-0.203,1.211-0.309,1.815c-0.055,0.316,0.062,0.479,0.377,0.533
				c0.678,0.117,1.358,0.222,2.034,0.351c0.219,0.042,0.455,0.072,0.511,0.355c-0.211,0.435-0.604,0.59-1.023,0.342
				c-0.295-0.175-0.605-0.243-0.928-0.298c-1.4-0.237-2.8-0.473-4.2-0.713C329.145,404.859,328.955,404.865,328.821,404.716z"/>
			<path style="fill:#544A4F;" d="M335.424,405.557c-0.106-0.164-0.287-0.144-0.443-0.171c-0.781-0.135-1.562-0.272-2.346-0.389
				c-0.288-0.043-0.376-0.163-0.323-0.45c0.143-0.765,0.272-1.533,0.392-2.302c0.047-0.299,0.18-0.409,0.486-0.356
				c1.4,0.245,2.801,0.481,4.203,0.711c0.271,0.044,0.344,0.172,0.296,0.432c-0.142,0.765-0.281,1.531-0.395,2.301
				c-0.048,0.323-0.168,0.445-0.5,0.365c-0.149-0.036-0.403-0.173-0.451,0.093c-0.056,0.308,0.253,0.234,0.415,0.263
				c1.252,0.222,2.506,0.428,3.76,0.639c0.002,0.028-0.003,0.056-0.014,0.082c-0.569,0.026-1.12-0.116-1.662-0.242
				c-0.715-0.166-1.449-0.013-2.157-0.202c-0.285-0.076-0.56-0.144-0.668-0.447C335.91,405.589,335.591,405.719,335.424,405.557z"/>
			<path style="fill:#065B88;" d="M328.653,438.819c-4.624-0.792-7.695-5.151-6.905-9.801c0.786-4.622,5.168-7.736,9.781-6.95
				c4.618,0.786,7.767,5.228,6.941,9.845C337.631,436.607,333.238,439.622,328.653,438.819z"/>
			<path style="fill:#85C4D9;" d="M331.236,427.894c-0.331,1.783-2.068,3.095-3.93,2.733c-1.839-0.358-3.072-1.928-2.782-3.913
				c0.27-1.855,2.075-3.131,3.92-2.812C330.324,424.227,331.592,425.945,331.236,427.894z"/>
			<path style="fill:#A7A8AC;" d="M342.217,402.984c0.038-0.261-0.004-0.491-0.098-0.679c-0.042-0.114-0.1-0.225-0.194-0.327
				c-0.183-0.218-0.449-0.212-0.695-0.252c-1.778-0.288-3.547-0.635-5.333-0.879c-0.012,0.01-0.017,0.021-0.028,0.031
				c-1.157-0.196-2.313-0.392-3.47-0.589c-0.01-0.015-0.011-0.03-0.023-0.046c-0.921-0.197-1.855-0.318-2.781-0.492
				c-0.157-0.029-0.295,0.008-0.437,0.054c-0.02,0.007-0.032,0.02-0.051,0.028c-0.045,0.017-0.086,0.041-0.125,0.068
				c-0.29,0.182-0.422,0.499-0.482,0.796c-0.261,1.291-0.477,2.593-0.668,3.896c-0.038,0.261,0.003,0.491,0.098,0.679
				c0.042,0.114,0.1,0.225,0.194,0.327c0.183,0.218,0.45,0.212,0.695,0.252c1.778,0.288,3.547,0.635,5.333,0.879
				c0.012-0.01,0.017-0.021,0.028-0.031c1.157,0.196,2.313,0.392,3.47,0.589c0.01,0.015,0.011,0.03,0.023,0.046
				c0.921,0.197,1.855,0.318,2.781,0.492c0.157,0.029,0.295-0.008,0.437-0.054c0.02-0.007,0.032-0.02,0.051-0.028
				c0.045-0.017,0.086-0.041,0.125-0.069c0.29-0.182,0.422-0.499,0.482-0.796C341.81,405.589,342.026,404.288,342.217,402.984z
				 M339.742,406.342c-2.406-0.397-4.811-0.795-7.213-1.213c-0.973-0.169-1.947-0.33-2.919-0.504
				c-0.252-0.045-0.489-0.118-0.433-0.447c0.167-0.979,0.278-1.968,0.522-2.934c0.103-0.08,0.274-0.061,0.609-0.006
				c2.406,0.397,4.811,0.795,7.213,1.213c0.973,0.169,1.947,0.33,2.919,0.504c0.252,0.045,0.489,0.118,0.433,0.447
				c-0.167,0.979-0.278,1.968-0.522,2.934C340.248,406.416,340.077,406.397,339.742,406.342z"/>
			<path style="fill:#648FAA;" d="M308.457,403.803l-6.823-1.155c-1.419-0.24-2.383-1.597-2.143-3.016l0,0
				c0.24-1.419,1.598-2.383,3.016-2.143l6.823,1.155c1.419,0.24,2.383,1.598,2.143,3.016l0,0
				C311.233,403.079,309.875,404.043,308.457,403.803z"/>
		</g>
		<g>
			<path style="fill:#FE8CCB;" d="M193.087,382.487c-0.509,0.157-1.019,0.314-1.528,0.471c-0.292,0.312-0.613,0.319-0.955,0.089
				c-1.708,0.399-3.443,0.181-5.166,0.215c-2.996,0.058-5.999,0.155-8.986,0.108c-2.329-0.037-4.666,0.137-6.998-0.084
				c-1.298-0.123-2.604,0.123-3.925,0.024c-0.941-0.071-1.159-0.348-1.157-1.237c0.027-9.808,0.015-19.617,0.015-29.425
				c0-6.058,0.024-12.116-0.022-18.174c-0.008-1.003,0.309-1.233,1.263-1.232c15.825,0.025,31.649,0.026,47.474-0.01
				c1.064-0.002,1.289,0.345,1.286,1.337c-0.027,13.393-0.028,26.787,0.014,40.18c0.003,0.881-0.374,1.252-1.042,1.555
				c-0.198,0.204-0.431,0.222-0.684,0.128c-0.629-0.805-1.401-1.482-2.048-2.273c-0.516-0.632-1.093-0.797-1.814-0.287
				c-4.514,3.189-9.642,5.208-14.564,7.618c-0.37,0.181-0.748,0.345-0.952,0.737C193.237,382.321,193.166,382.408,193.087,382.487z"
				/>
			<path style="fill:#FE74B9;" d="M210.368,377.242c-4.218,1.28-8.43,2.584-12.659,3.825c-1.517,0.445-3.006,1.015-4.593,1.203
				c-0.481-0.718,0.337-0.799,0.576-0.886c3.645-1.321,6.874-3.506,10.454-4.972c1.687-0.69,3.204-1.799,4.663-2.921
				c0.71-0.546,1.319-0.514,1.785,0.191c0.615,0.929,1.902,1.333,2.034,2.627c-0.511,0.235-1.022,0.471-1.533,0.706
				C210.922,377.309,210.654,377.306,210.368,377.242z"/>
		</g>
		<g>
			<path style="fill:#FDEB3F;" d="M208.751,289.984c-0.17,0.095-0.336,0.552-0.517,0.202c-0.442-0.854-1.287-1.18-1.99-1.671
				c-11.739-8.198-23.491-16.377-35.244-24.553c-0.488-0.339-0.927-0.764-1.53-0.924c-0.323-0.086-0.3-0.318-0.17-0.562
				c1.061-1.045,1.769-2.354,2.605-3.562c0.447-0.646,0.764-0.698,1.409-0.248c12.456,8.7,24.923,17.383,37.403,26.049
				c0.757,0.526,0.896,0.955,0.337,1.735c-0.81,1.13-1.72,2.201-2.309,3.48L208.751,289.984z"/>
			<g>
				<path style="fill:#FCF46C;" d="M169.064,313.245c-0.822-0.685-1.897-0.869-2.845-1.196c-1.176-0.406-2.126-1.066-3.099-1.741
					c-5.821-4.04-11.621-8.11-17.457-12.126c-0.815-0.561-0.905-0.941-0.328-1.768c8.803-12.601,17.572-25.227,26.359-37.84
					c0.233-0.335,0.34-0.851,0.905-0.853c0.011,0.146,0.008,0.291-0.007,0.436c-0.536,1.165-1.406,2.112-2.084,3.184
					c-0.229,0.363-0.579,0.672-0.521,1.161c0.17,0.51,0.639,0.704,1.026,0.974c11.795,8.211,23.586,16.43,35.384,24.638
					c0.757,0.526,1.484,1.088,2.199,1.668c0.137,0.063,0.247,0.159,0.332,0.283c-5.326,7.662-10.653,15.324-15.979,22.985
					c-1.235,1.776-2.501,3.531-3.689,5.337c-0.42,0.639-0.86,0.867-1.579,0.644c-0.681-0.211-1.374-0.382-2.062-0.57
					c0.015-0.055,0.031-0.109,0.045-0.164c0.19-0.243,0.473-0.37,0.742-0.303c1.154,0.29,0.947-0.33,0.737-1.021
					c-0.2-0.657-0.265-1.333-0.089-2.012c0.182-0.704-0.003-1.049-0.814-1.005c-2.31,0.123-4.621,0.146-6.93-0.065
					c-1.948-0.178-3.901-0.355-5.82-0.72c-2.189-0.417-4.445-0.503-6.739-1.47c1.098,0.633,2.336,0.35,3.007,1.387
					C169.634,313.615,169.312,313.265,169.064,313.245z"/>
				<path style="fill:#FBE722;" d="M185.741,318.377c-2.346-0.728-4.699-1.434-7.036-2.188c-2.443-0.789-4.877-1.61-7.304-2.447
					c-0.555-0.192-1.212-0.099-1.666-0.577c-0.985-0.771-2.331-0.753-3.321-1.555c2.675,0.662,5.403,0.976,8.111,1.391
					c4.033,0.617,8.09,0.971,12.175,0.591c0.6-0.056,0.884,0.175,0.754,0.722c-0.288,1.206-0.19,2.344,0.255,3.503
					c0.209,0.546,0.012,1.038-0.719,0.629C186.557,318.203,186.169,318.187,185.741,318.377z"/>
				<path style="fill:#FEEC01;" d="M208.744,289.931c0.269-1.308,1.269-2.18,1.985-3.207c0.638-0.913,0.649-1.421-0.338-2.105
					c-12.272-8.502-24.524-17.034-36.751-25.6c-0.95-0.665-1.348-0.472-1.949,0.391c-0.737,1.06-1.242,2.323-2.391,3.066
					c1.053-1.517,2.106-3.034,3.158-4.552c12.656,8.821,25.315,17.639,37.967,26.468c1.649,1.151,1.603,0.794,0.444,2.488
					C210.169,287.903,209.453,288.914,208.744,289.931z"/>
			</g>
		</g>
		<path style="fill:#E0DCFF;" d="M387.858,251.776"/>
	</g>
</g>
<g id="DESIGNED_BY_FREEPIK">
	<g>
		<g id="XMLID_319_">
			<g id="XMLID_338_">
				<path id="XMLID_346_" style="fill:#1D262D;" d="M256.372,467.569c-0.425,0.435-0.789,0.915-1.089,1.427l-0.457-0.237
					c-0.066-0.292-0.343-0.493-0.648-0.458c-0.325,0.038-0.557,0.333-0.52,0.658c0.038,0.325,0.333,0.557,0.658,0.519
					c0.064-0.007,0.125-0.025,0.18-0.051l0.443,0.23c-0.247,0.544-0.425,1.119-0.53,1.712l0.734,0.129
					c0.225-1.283,0.835-2.462,1.76-3.411L256.372,467.569z"/>
				<path id="XMLID_345_" style="fill:#1D262D;" d="M261.762,465.308c-0.168,0-0.335,0.006-0.5,0.016l-0.073-0.615
					c0.184-0.147,0.291-0.382,0.261-0.633c-0.045-0.386-0.395-0.662-0.781-0.617c-0.387,0.045-0.663,0.395-0.617,0.782
					c0.03,0.249,0.186,0.453,0.397,0.553l0.072,0.613c-0.701,0.114-1.378,0.326-2.023,0.634l0.321,0.672
					c0.918-0.439,1.907-0.662,2.942-0.662c0.488,0,0.976,0.052,1.449,0.155l0.157-0.728
					C262.844,465.365,262.304,465.308,261.762,465.308z"/>
				<path id="XMLID_344_" style="fill:#1D262D;" d="M268.248,467.809c0.325-0.039,0.556-0.335,0.516-0.66
					c-0.039-0.325-0.335-0.556-0.66-0.516c-0.304,0.037-0.526,0.298-0.521,0.598l-0.409,0.357c-0.411-0.422-0.874-0.798-1.382-1.12
					l-0.397,0.63c1.115,0.702,1.985,1.696,2.518,2.873l0.678-0.307c-0.247-0.544-0.557-1.052-0.926-1.518l0.395-0.344
					C268.122,467.814,268.184,467.818,268.248,467.809z"/>
				<path id="XMLID_343_" style="fill:#1D262D;" d="M261.225,475.335c-0.379,0.023-0.762,0.035-1.137,0.035
					c-0.864,0-1.703-0.06-2.435-0.177c-0.384-0.06-0.831-0.152-1.248-0.287c1.028,1.828,3.015,3.07,5.293,3.07
					c2.805,0,5.17-1.882,5.844-4.423c-0.67,0.441-1.478,0.811-2.414,1.102C263.97,475.016,262.619,475.251,261.225,475.335z"/>
				<path id="XMLID_339_" style="fill:#1D262D;" d="M261.762,466.797c-3.292,0-5.971,2.619-5.971,5.838
					c0,0.417,0.045,0.834,0.134,1.238c0.662,0.475,2.658,0.875,5.253,0.718c2.829-0.171,5.203-0.941,6.554-2.121
					c-0.005-0.191-0.02-0.383-0.044-0.571C267.315,468.991,264.767,466.797,261.762,466.797z M259.642,473.197
					c-1.002,0-1.817-0.815-1.817-1.817c0-1.002,0.815-1.818,1.817-1.818c1.001,0,1.817,0.815,1.817,1.818
					C261.458,472.381,260.643,473.197,259.642,473.197z M264.295,472.305c-0.737,0-1.336-0.599-1.336-1.336s0.6-1.336,1.336-1.336
					s1.336,0.6,1.336,1.336S265.032,472.305,264.295,472.305z"/>
			</g>
			<path id="XMLID_336_" style="fill:#1D262D;" d="M277.483,468.632c-0.29-0.114-0.791-0.304-1.358-0.234
				c-0.541,0.068-0.829,0.335-0.829,0.989v0.851h2.189v1.686h-2.189v5.358h-1.898v-5.358h-1.315v-1.686h1.315v-0.873
				c0-1.65,0.88-2.733,2.523-2.733c0.631,0,1.137,0.119,1.562,0.302V468.632z"/>
			<path id="XMLID_334_" style="fill:#1D262D;" d="M282.102,471.904c-0.174-0.029-0.351-0.045-0.516-0.045
				c-0.88,0-1.483,0.538-1.483,1.585v3.839h-1.898v-7.045h1.84v0.77c0.443-0.661,1.119-0.959,1.985-0.959
				c0.407,0,0.833,0.126,1.075,0.331L282.102,471.904z"/>
			<path id="XMLID_331_" style="fill:#1D262D;" d="M289.634,473.749c0,0.218-0.015,0.48-0.036,0.64h-4.995
				c0.203,1.018,0.916,1.461,1.81,1.461c0.611,0,1.272-0.247,1.781-0.676l1.113,1.221c-0.8,0.735-1.818,1.07-3.003,1.07
				c-2.159,0-3.658-1.47-3.658-3.687c0-2.218,1.454-3.73,3.563-3.73C288.238,470.048,289.627,471.553,289.634,473.749z
				 M284.611,473.095h3.119c-0.175-0.902-0.719-1.411-1.534-1.411C285.301,471.684,284.777,472.222,284.611,473.095z"/>
			<path id="XMLID_328_" style="fill:#1D262D;" d="M297.152,473.749c0,0.218-0.015,0.48-0.036,0.64h-4.995
				c0.203,1.018,0.916,1.461,1.81,1.461c0.611,0,1.273-0.247,1.781-0.676l1.113,1.221c-0.8,0.735-1.818,1.07-3.003,1.07
				c-2.159,0-3.657-1.47-3.657-3.687c0-2.218,1.454-3.73,3.563-3.73C295.755,470.048,297.145,471.553,297.152,473.749z
				 M292.128,473.095h3.119c-0.175-0.902-0.72-1.411-1.534-1.411C292.819,471.684,292.295,472.222,292.128,473.095z"/>
			<path id="XMLID_325_" style="fill:#1D262D;" d="M305.35,473.756c0,2.116-1.469,3.709-3.41,3.709
				c-0.945,0-1.614-0.371-2.072-0.916v3.642h-1.891v-9.953h1.854v0.778c0.459-0.575,1.134-0.967,2.101-0.967
				C303.882,470.048,305.35,471.641,305.35,473.756z M299.773,473.756c0,1.113,0.735,1.942,1.811,1.942
				c1.12,0,1.817-0.865,1.817-1.942c0-1.075-0.697-1.941-1.817-1.941C300.508,471.815,299.773,472.644,299.773,473.756z"/>
			<path id="XMLID_322_" style="fill:#1D262D;" d="M308.399,467.932c0,0.684-0.531,1.208-1.214,1.208
				c-0.684,0-1.207-0.524-1.207-1.208c0-0.683,0.523-1.221,1.207-1.221C307.867,466.711,308.399,467.249,308.399,467.932z
				 M308.144,477.282h-1.897v-7.045h1.897V477.282z"/>
			<path id="XMLID_320_" style="fill:#1D262D;" d="M311.31,472.746l2.654-2.508h2.326l-3.417,3.315l3.439,3.73h-2.334l-2.669-2.85
				v2.85h-1.898v-10.47h1.898V472.746z"/>
		</g>
		<g>
			<path style="fill:#1D262D;" d="M182.02,477.219v-1.036c-0.518,0.705-1.366,1.209-2.345,1.209c-1.813,0-3.094-1.381-3.094-3.641
				c0-2.216,1.266-3.655,3.094-3.655c0.935,0,1.784,0.46,2.345,1.223v-3.698h1.08v9.598H182.02z M182.02,475.334v-3.151
				c-0.388-0.604-1.223-1.122-2.086-1.122c-1.395,0-2.23,1.151-2.23,2.691c0,1.54,0.835,2.676,2.23,2.676
				C180.798,476.428,181.632,475.938,182.02,475.334z"/>
			<path style="fill:#1D262D;" d="M184.495,473.737c0-2.014,1.439-3.64,3.425-3.64c2.101,0,3.338,1.64,3.338,3.727v0.273h-5.626
				c0.086,1.309,1.007,2.403,2.504,2.403c0.791,0,1.597-0.317,2.144-0.878l0.518,0.705c-0.691,0.691-1.626,1.065-2.762,1.065
				C185.977,477.392,184.495,475.91,184.495,473.737z M187.905,470.988c-1.482,0-2.216,1.252-2.274,2.317h4.561
				C190.179,472.269,189.488,470.988,187.905,470.988z"/>
			<path style="fill:#1D262D;" d="M192.035,476.298l0.561-0.777c0.46,0.532,1.338,0.993,2.287,0.993
				c1.065,0,1.641-0.504,1.641-1.194c0-1.684-4.302-0.648-4.302-3.223c0-1.079,0.935-2,2.59-2c1.18,0,2.015,0.446,2.576,1.007
				l-0.504,0.748c-0.417-0.504-1.179-0.878-2.072-0.878c-0.949,0-1.539,0.475-1.539,1.093c0,1.525,4.302,0.518,4.302,3.223
				c0,1.165-0.935,2.101-2.733,2.101C193.704,477.392,192.74,477.046,192.035,476.298z"/>
			<path style="fill:#1D262D;" d="M198.783,468.557c0-0.403,0.331-0.734,0.719-0.734c0.403,0,0.734,0.331,0.734,0.734
				c0,0.403-0.331,0.719-0.734,0.719C199.114,469.276,198.783,468.96,198.783,468.557z M198.97,477.219v-6.95h1.08v6.95H198.97z"/>
			<path style="fill:#1D262D;" d="M201.833,479.003l0.546-0.806c0.576,0.691,1.266,0.95,2.259,0.95c1.151,0,2.23-0.561,2.23-2.087
				v-0.993c-0.504,0.705-1.353,1.237-2.331,1.237c-1.813,0-3.094-1.353-3.094-3.597c0-2.23,1.266-3.612,3.094-3.612
				c0.935,0,1.77,0.46,2.331,1.223v-1.05h1.079v6.749c0,2.302-1.612,3.022-3.31,3.022
				C203.459,480.039,202.653,479.808,201.833,479.003z M206.869,475.219v-3.036c-0.374-0.604-1.209-1.122-2.072-1.122
				c-1.396,0-2.23,1.108-2.23,2.648c0,1.525,0.834,2.648,2.23,2.648C205.66,476.356,206.495,475.823,206.869,475.219z"/>
			<path style="fill:#1D262D;" d="M214.437,477.219v-4.547c0-1.223-0.619-1.612-1.554-1.612c-0.849,0-1.655,0.518-2.057,1.079v5.079
				h-1.08v-6.95h1.08v1.007c0.489-0.576,1.438-1.18,2.474-1.18c1.453,0,2.216,0.734,2.216,2.245v4.878H214.437z"/>
			<path style="fill:#1D262D;" d="M216.912,473.737c0-2.014,1.439-3.64,3.425-3.64c2.101,0,3.338,1.64,3.338,3.727v0.273h-5.626
				c0.086,1.309,1.007,2.403,2.503,2.403c0.791,0,1.597-0.317,2.144-0.878l0.518,0.705c-0.691,0.691-1.626,1.065-2.763,1.065
				C218.394,477.392,216.912,475.91,216.912,473.737z M220.322,470.988c-1.482,0-2.216,1.252-2.273,2.317h4.561
				C222.595,472.269,221.905,470.988,220.322,470.988z"/>
			<path style="fill:#1D262D;" d="M230.092,477.219v-1.036c-0.518,0.705-1.367,1.209-2.346,1.209c-1.813,0-3.093-1.381-3.093-3.641
				c0-2.216,1.266-3.655,3.093-3.655c0.935,0,1.785,0.46,2.346,1.223v-3.698h1.079v9.598H230.092z M230.092,475.334v-3.151
				c-0.389-0.604-1.223-1.122-2.086-1.122c-1.396,0-2.23,1.151-2.23,2.691c0,1.54,0.835,2.676,2.23,2.676
				C228.869,476.428,229.703,475.938,230.092,475.334z"/>
			<path style="fill:#1D262D;" d="M236.322,477.219v-9.598h1.079v3.698c0.561-0.763,1.396-1.223,2.345-1.223
				c1.813,0,3.094,1.439,3.094,3.655c0,2.259-1.281,3.641-3.094,3.641c-0.978,0-1.827-0.504-2.345-1.209v1.036H236.322z
				 M239.473,476.428c1.41,0,2.245-1.137,2.245-2.676c0-1.54-0.835-2.691-2.245-2.691c-0.849,0-1.698,0.518-2.072,1.122v3.151
				C237.775,475.938,238.624,476.428,239.473,476.428z"/>
			<path style="fill:#1D262D;" d="M244.019,478.96c0.158,0.072,0.418,0.115,0.59,0.115c0.475,0,0.791-0.158,1.036-0.734l0.46-1.05
				l-2.907-7.022h1.165l2.317,5.698l2.303-5.698h1.179l-3.482,8.36c-0.417,1.006-1.122,1.396-2.043,1.41
				c-0.23,0-0.59-0.043-0.791-0.102L244.019,478.96z"/>
		</g>
	</g>
</g>
</svg>
