<?xml version="1.0" encoding="utf-8"?>
<!-- Generator: Adobe Illustrator 27.5.0, SVG Export Plug-In . SVG Version: 6.00 Build 0)  -->
<svg version="1.1" xmlns="http://www.w3.org/2000/svg" xmlns:xlink="http://www.w3.org/1999/xlink" x="0px" y="0px"
	 viewBox="0 0 1800 1122" style="enable-background:new 0 0 1800 1122;" xml:space="preserve">
<g id="BG">
	<rect style="fill:#FFFFFF;" width="1800" height="1122"/>
</g>
<g id="Objects">
	<g>
		<path style="fill:#E5E5E6;" d="M1658.393,133.3c-13.931,0-25.265-11.334-25.265-25.265c0-13.931,11.334-25.265,25.265-25.265
			s25.265,11.334,25.265,25.265C1683.658,121.966,1672.324,133.3,1658.393,133.3z M1658.393,89.936
			c-9.98,0-18.099,8.119-18.099,18.099c0,9.98,8.119,18.099,18.099,18.099c9.98,0,18.099-8.119,18.099-18.099
			C1676.492,98.055,1668.373,89.936,1658.393,89.936z"/>
	</g>
	<g>
		<path style="fill:#E5E5E6;" d="M175.312,1053.692c-50.828,0-92.179-41.351-92.179-92.178c0-50.827,41.351-92.178,92.179-92.178
			c50.827,0,92.178,41.351,92.178,92.178C267.489,1012.341,226.139,1053.692,175.312,1053.692z M175.312,876.502
			c-46.876,0-85.013,38.136-85.013,85.012c0,46.876,38.137,85.012,85.013,85.012c46.876,0,85.012-38.136,85.012-85.012
			C260.323,914.638,222.187,876.502,175.312,876.502z"/>
	</g>
	<g>
		<path style="fill:#E5E5E6;" d="M1543.699,1053.692c-50.828,0-92.179-41.351-92.179-92.178c0-50.827,41.352-92.178,92.179-92.178
			c50.827,0,92.178,41.351,92.178,92.178C1635.877,1012.341,1594.526,1053.692,1543.699,1053.692z M1543.699,876.502
			c-46.877,0-85.013,38.136-85.013,85.012c0,46.876,38.137,85.012,85.013,85.012c46.876,0,85.012-38.136,85.012-85.012
			C1628.711,914.638,1590.575,876.502,1543.699,876.502z"/>
	</g>
	<g>
		<path style="fill:#E5E5E6;" d="M547.507,735.004c-13.964,0-25.325-11.361-25.325-25.325c0-13.965,11.361-25.326,25.325-25.326
			c13.964,0,25.325,11.361,25.325,25.326C572.832,723.644,561.471,735.004,547.507,735.004z M547.507,691.519
			c-10.013,0-18.159,8.147-18.159,18.16s8.146,18.159,18.159,18.159c10.013,0,18.159-8.146,18.159-18.159
			S557.519,691.519,547.507,691.519z"/>
	</g>
	<g>
		<path style="fill:#E5E5E6;" d="M1632.294,987.192c-21.959,0-39.824-17.865-39.824-39.824c0-21.959,17.865-39.824,39.824-39.824
			c21.959,0,39.823,17.865,39.823,39.824C1672.117,969.328,1654.253,987.192,1632.294,987.192z M1632.294,914.711
			c-18.008,0-32.658,14.65-32.658,32.658c0,18.007,14.65,32.658,32.658,32.658c18.007,0,32.657-14.65,32.657-32.658
			C1664.951,929.361,1650.301,914.711,1632.294,914.711z"/>
	</g>
	<g>
		<path style="fill:#E5E5E6;" d="M116.835,490.214c-29.75,0-53.953-24.204-53.953-53.954s24.203-53.953,53.953-53.953
			c29.75,0,53.953,24.203,53.953,53.953S146.585,490.214,116.835,490.214z M116.835,389.474c-25.799,0-46.788,20.989-46.788,46.787
			c0,25.799,20.989,46.788,46.788,46.788c25.798,0,46.787-20.989,46.787-46.788C163.622,410.462,142.633,389.474,116.835,389.474z"
			/>
	</g>
	<g>
		<g>
			<g>
				<path style="fill:#E5E5E6;" d="M899.71,905.826c-37.132,0-74.395-6.232-110.505-18.772l2.351-6.77
					c82.977,28.816,172.21,23.597,251.26-14.699c79.051-38.296,138.457-105.085,167.274-188.062
					c28.818-82.977,23.597-172.209-14.699-251.26c-38.297-79.051-105.085-138.456-188.062-167.274
					c-82.977-28.817-172.21-23.597-251.26,14.699c-79.051,38.296-138.456,105.085-167.274,188.062
					c-28.818,82.977-23.597,172.21,14.699,251.261c19.224,39.682,45.61,74.458,78.425,103.364l-4.736,5.377
					c-33.534-29.538-60.496-65.073-80.138-105.617c-39.131-80.773-44.465-171.95-15.019-256.735
					c29.446-84.786,90.146-153.029,170.919-192.16c80.773-39.131,171.95-44.465,256.735-15.02
					c84.785,29.446,153.029,90.146,192.16,170.92c39.131,80.773,44.465,171.95,15.019,256.735s-90.146,153.029-170.919,192.16
					C999.569,894.499,949.761,905.826,899.71,905.826z"/>
			</g>
		</g>
		<g>
			<g>
				<path style="fill:#E5E5E6;" d="M899.834,925.107c-7.537,0-15.093-0.237-22.669-0.713c-46.074-2.893-90.439-14.454-131.862-34.36
					c-42.889-20.61-80.727-49.309-112.464-85.299c-19.381-21.979-35.978-46.215-49.329-72.036l6.365-3.291
					c13.082,25.299,29.345,49.048,48.339,70.587c61.531,69.777,146.552,111.416,239.401,117.246
					c92.849,5.831,182.411-24.845,252.188-86.376s111.416-146.552,117.247-239.401c5.831-92.849-24.845-182.411-86.376-252.187
					c-33.069-37.5-72.765-66.841-117.986-87.206c-43.692-19.677-90.242-30.003-138.356-30.693l0.103-7.165
					c49.1,0.704,96.605,11.243,141.196,31.324c46.156,20.786,86.671,50.73,120.418,89c31.737,35.99,55.477,77.121,70.56,122.251
					c14.568,43.588,20.487,89.051,17.594,135.125c-2.893,46.074-14.454,90.439-34.36,131.862
					c-20.61,42.889-49.309,80.727-85.299,112.464c-35.99,31.737-77.122,55.477-122.252,70.56
					C975.869,918.973,938.135,925.107,899.834,925.107z"/>
			</g>
		</g>
		<g>
			<g>
				<path style="fill:#E5E5E6;" d="M540.001,690.604c-15.524-46.893-21.699-95.546-18.354-144.606
					c3.464-50.796,17.033-99.749,40.33-145.499c23.137-45.436,54.482-84.984,93.165-117.543
					c37.362-31.447,79.959-55.085,126.609-70.255c46.65-15.17,95.002-21.107,143.715-17.652
					c50.435,3.579,99.046,17.125,144.483,40.262c40.828,20.79,77.048,48.339,107.654,81.882
					c29.568,32.405,53.098,69.485,69.937,110.21c33.96,82.133,37.976,173.771,11.31,258.034l-6.832-2.162
					c26.159-82.659,22.217-172.557-11.1-253.134c-16.52-39.953-39.603-76.33-68.608-108.119
					c-30.022-32.903-65.556-59.929-105.612-80.326c-44.578-22.699-92.265-35.989-141.738-39.5
					c-47.787-3.391-95.224,2.436-140.992,17.319c-45.768,14.883-87.558,38.072-124.21,68.922
					c-37.945,31.939-68.695,70.736-91.394,115.313c-22.856,44.884-36.168,92.907-39.566,142.735
					c-3.282,48.128,2.776,95.859,18.007,141.866L540.001,690.604z"/>
			</g>
		</g>
	</g>
	<g>
		<path style="fill:#59595C;" d="M219.41,255.417l-3.223-1.565l0.346-0.712l3.223,1.565L219.41,255.417z M221.321,251.482
			l-3.223-1.565l3.13-6.446l3.223,1.565L221.321,251.482z M226.016,241.813l-3.223-1.565l3.13-6.446l3.223,1.565L226.016,241.813z
			 M230.711,232.144l-3.223-1.565l3.13-6.446l3.223,1.566L230.711,232.144z M235.406,222.475l-3.223-1.565l3.13-6.446l3.223,1.565
			L235.406,222.475z M240.101,212.806l-3.223-1.565l3.13-6.446l3.223,1.566L240.101,212.806z"/>
	</g>
	<g>
		<polygon style="fill:#59595C;" points="1459.126,752.077 1425.882,752.077 1403.423,729.619 1371.858,729.619 1344.479,702.241 
			1307.245,702.241 1279.866,729.619 1212.899,729.619 1212.899,726.036 1278.383,726.036 1305.761,698.658 1345.964,698.658 
			1373.342,726.036 1404.906,726.036 1427.365,748.494 1457.642,748.494 1480.101,726.036 1527.639,726.036 1527.639,729.619 
			1481.585,729.619 		"/>
	</g>
	<g>
		<polygon style="fill:#59595C;" points="1666.113,699.432 1625.911,699.432 1598.533,672.054 1566.968,672.054 1544.509,649.596 
			1514.233,649.596 1491.774,672.054 1444.235,672.054 1444.235,668.471 1490.29,668.471 1512.749,646.013 1545.993,646.013 
			1568.452,668.471 1600.017,668.471 1627.395,695.849 1664.629,695.849 1692.008,668.471 1744.883,668.471 1744.883,672.054 
			1693.492,672.054 		"/>
	</g>
	<g>
		<polygon style="fill:#59595C;" points="1244.714,726.646 1242.205,724.088 1304.211,663.264 1380.181,663.264 1405.421,692.417 
			1546.958,692.417 1581.969,715.094 1580.021,718.101 1545.899,696 1403.784,696 1378.544,666.847 1305.675,666.847 		"/>
	</g>
	<g>
		
			<rect x="1256.518" y="658.891" transform="matrix(0.7071 -0.7071 0.7071 0.7071 -112.2007 1088.9109)" style="fill:#59595C;" width="3.583" height="42.001"/>
	</g>
	<g>
		<g>
			<path style="fill:#59595B;" d="M343.648,211.587c-4.908,0-9.704-2.471-12.446-6.945l-57.051-93.08
				c-2.029-3.31-2.645-7.211-1.735-10.983c0.911-3.777,3.243-6.973,6.566-8.999l4.353-2.653c6.848-4.173,15.825-2.012,20.011,4.818
				l57.051,93.08c2.029,3.311,2.645,7.211,1.735,10.983c-0.911,3.778-3.243,6.973-6.566,8.999l-4.353,2.653
				C348.85,210.901,346.233,211.587,343.648,211.587z M290.915,93.965c-1.316,0-2.647,0.349-3.85,1.082l-4.353,2.653
				c-1.685,1.027-2.868,2.647-3.33,4.56c-0.46,1.909-0.148,3.882,0.878,5.557l57.051,93.08c2.127,3.47,6.69,4.566,10.172,2.444
				l4.353-2.653c1.686-1.027,2.868-2.646,3.33-4.56c0.461-1.908,0.149-3.882-0.878-5.557l-57.051-93.08
				C295.845,95.22,293.408,93.965,290.915,93.965z"/>
		</g>
		<g>
			<path style="fill:#59595B;" d="M269.155,90.048c-4.908,0-9.705-2.471-12.447-6.944l-5.867-9.573
				c-2.029-3.311-2.645-7.211-1.735-10.983c0.911-3.778,3.243-6.973,6.567-8.999l4.353-2.653c6.847-4.173,15.825-2.012,20.011,4.818
				l5.867,9.574c2.029,3.31,2.645,7.21,1.735,10.982c-0.911,3.777-3.243,6.973-6.566,8.998l-4.353,2.653
				C274.357,89.363,271.74,90.048,269.155,90.048z M267.604,55.934c-1.315,0-2.647,0.349-3.849,1.082l-4.353,2.653
				c-1.686,1.027-2.868,2.647-3.33,4.56c-0.46,1.909-0.149,3.882,0.878,5.557l5.867,9.573c2.127,3.47,6.69,4.566,10.172,2.445
				l4.353-2.653c1.685-1.027,2.868-2.647,3.33-4.561c0.46-1.908,0.149-3.882-0.878-5.557l0-0.001l-5.867-9.573
				C272.534,57.188,270.098,55.934,267.604,55.934z"/>
		</g>
		<g>
			
				<rect x="313.958" y="84.6" transform="matrix(0.8526 -0.5226 0.5226 0.8526 -31.3855 187.9944)" style="fill:#59595B;" width="7.166" height="130.061"/>
		</g>
		<g>
			<path style="fill:#59595B;" d="M367.068,230.442l-34.623-23.55l29.396-17.917L367.068,230.442z M345.672,207.222l12.302,8.368
				l-1.857-14.733L345.672,207.222z"/>
		</g>
	</g>
	<g>
		<path style="fill:#808083;" d="M1169.648,835.282h-549.64v-549.64h549.64V835.282z M623.591,831.699h542.474V289.225H623.591
			V831.699z"/>
	</g>
	<g>
		<path style="fill:#59595B;" d="M358.236,595.394c-38.331,0-74.45-8.232-101.705-23.18c-28.275-15.507-43.847-36.487-43.847-59.074
			c0-22.587,15.572-43.567,43.847-59.074c27.255-14.948,63.374-23.18,101.705-23.18s74.45,8.232,101.704,23.18
			c28.275,15.507,43.847,36.487,43.847,59.074c0,22.587-15.572,43.567-43.847,59.074
			C432.686,587.162,396.567,595.394,358.236,595.394z M358.236,441.635c-36.555,0-70.838,7.762-96.536,21.855
			c-24.677,13.534-38.267,31.167-38.267,49.649c0,18.483,13.59,36.116,38.267,49.65c25.697,14.093,59.981,21.855,96.536,21.855
			s70.838-7.762,96.535-21.855c24.677-13.534,38.267-31.167,38.267-49.65c0-18.483-13.59-36.116-38.267-49.649
			C429.074,449.397,394.791,441.635,358.236,441.635z"/>
	</g>
	<g>
		<g>
			<path style="fill:#5EA49B;" d="M596.073,227.986c-9.895-12.665-26.022-19.693-41.952-15.673
				c-14.812,3.738-25.205,17.697-40.709,19.855c-15.95,2.221-23.48-13.745-34.931-21.371c-14.269-9.502-32.454-4.016-45.563,4.667
				c-6.798,4.503-13.273,10.384-21.151,12.926c-7.598,2.452-14.792-0.506-21.59-3.955c-10.259-5.205-19.337,10.246-9.042,15.469
				c7.315,3.711,14.877,6.857,23.158,7.351c7.503,0.447,14.811-2.028,21.348-5.514c11.987-6.393,24.543-21.296,39.613-17.469
				c5.514,1.4,9.084,6.889,12.962,10.659c6.147,5.977,13.107,11.334,21.424,13.832c15.905,4.778,31.597-2.762,44.774-11.144
				c6.57-4.179,12.579-9.232,20.821-8.531c7.695,0.655,13.603,5.72,18.17,11.566c2.981,3.815,9.541,3.127,12.668,0
				C599.84,236.887,599.062,231.811,596.073,227.986L596.073,227.986z"/>
		</g>
	</g>
	<g>
		
			<rect x="155.984" y="381.125" transform="matrix(0.5326 -0.8464 0.8464 0.5326 -236.1452 338.2244)" style="fill:#59595C;" width="64.339" height="3.583"/>
	</g>
	<g>
		
			<rect x="254.923" y="258.143" transform="matrix(0.722 -0.6919 0.6919 0.722 -104.9274 258.744)" style="fill:#59595C;" width="29.143" height="3.583"/>
	</g>
	<g>
		
			<rect x="146.235" y="203.986" transform="matrix(0.7125 -0.7016 0.7016 0.7125 -123.9428 172.0784)" style="fill:#59595C;" width="3.583" height="66.617"/>
	</g>
	<g>
		
			<rect x="76.398" y="321.208" transform="matrix(1 -0.0033 0.0033 1 -1.0541 0.3921)" style="fill:#59595C;" width="86.31" height="3.583"/>
	</g>
	<g>
		
			<rect x="303.125" y="281.129" transform="matrix(0.0796 -0.9968 0.9968 0.0796 -32.3538 592.9286)" style="fill:#59595C;" width="3.583" height="65.712"/>
	</g>
	<g>
		<rect x="651.996" y="55.697" style="fill:#E5E5E6;" width="198.9" height="169.519"/>
	</g>
	<path style="fill:#E5E4E4;" d="M1672.543,564.805c-13.926,0-25.214,11.288-25.214,25.213c0,13.926,11.288,25.215,25.214,25.215
		c13.924,0,25.214-11.288,25.214-25.215C1697.756,576.093,1686.467,564.805,1672.543,564.805z"/>
	<g style="opacity:0.5;">
		<g>
			<defs>
				<rect id="SVGID_1_" x="1647.328" y="564.804" width="25.219" height="50.432"/>
			</defs>
			<clipPath id="SVGID_00000153695443209154173050000003949750223407922109_">
				<use xlink:href="#SVGID_1_"  style="overflow:visible;"/>
			</clipPath>
			<g style="clip-path:url(#SVGID_00000153695443209154173050000003949750223407922109_);">
				<path style="fill:#E5E4E4;" d="M1672.543,615.233c-13.926,0-25.214-11.288-25.214-25.215c0-13.925,11.288-25.213,25.214-25.213
					V615.233z"/>
			</g>
		</g>
	</g>
	<g>
		<path style="fill:#E5E5E6;" d="M1633.352,197.688c0,49.514-40.139,89.654-89.653,89.654c-49.515,0-89.654-40.139-89.654-89.654
			s40.14-89.654,89.654-89.654C1593.213,108.035,1633.352,148.174,1633.352,197.688z"/>
	</g>
	<g>
		
			<ellipse transform="matrix(0.1891 -0.982 0.982 0.1891 -777.9083 835.3526)" style="fill:#E5E5E6;" cx="116.835" cy="888.684" rx="41.325" ry="41.325"/>
	</g>
	<g>
		<g>
			<polygon style="fill:#BCB39A;" points="1112.697,434.675 894.828,308.888 676.959,434.675 894.828,560.462 			"/>
		</g>
		<g>
			<polygon style="fill:#808083;" points="676.959,434.675 676.959,686.248 894.828,812.035 894.828,560.462 			"/>
		</g>
		<g>
			<polygon style="fill:#F1EFEA;" points="894.828,560.462 894.828,812.035 1112.697,686.248 1112.697,434.675 			"/>
		</g>
	</g>
	<g>
		<rect x="610.965" y="276.598" style="fill:#59595B;" width="21.67" height="21.67"/>
	</g>
	<g>
		<rect x="883.993" y="276.598" style="fill:#59595B;" width="21.67" height="21.67"/>
	</g>
	<g>
		<rect x="1157.022" y="276.598" style="fill:#59595B;" width="21.67" height="21.67"/>
	</g>
	<g>
		<rect x="1157.022" y="546.258" style="fill:#59595B;" width="21.67" height="21.67"/>
	</g>
	<g>
		<rect x="1157.022" y="822.655" style="fill:#59595B;" width="21.67" height="21.67"/>
	</g>
	<g>
		<rect x="883.993" y="822.655" style="fill:#59595B;" width="21.67" height="21.67"/>
	</g>
	<g>
		<rect x="610.965" y="822.655" style="fill:#59595B;" width="21.67" height="21.67"/>
	</g>
	<g>
		<rect x="610.965" y="546.258" style="fill:#59595B;" width="21.67" height="21.67"/>
	</g>
	<g>
		<g>
			<path style="fill:#5EA49B;" d="M1531.289,220.283c0.16-64.165-51.727-116.309-115.891-116.469
				c-64.164-0.16-116.309,51.727-116.469,115.891c-0.127,51.209,32.897,94.759,78.854,110.34l-0.084,33.778l74.104,0.184
				l0.084-33.778C1497.921,314.877,1531.161,271.491,1531.289,220.283z"/>
		</g>
		<g>
			<g>
				<polygon style="fill:#DBDBDB;" points="1408.652,375.247 1377.628,392.151 1377.599,403.858 1430.014,375.3 				"/>
			</g>
			<g>
				<polygon style="fill:#DBDBDB;" points="1451.689,409.76 1451.718,398.052 1377.513,438.483 1377.486,449.274 1379.924,449.28 
					1379.748,448.957 				"/>
			</g>
			<g>
				<polygon style="fill:#DBDBDB;" points="1451.661,421.218 1400.065,449.33 1421.427,449.383 1451.632,432.926 				"/>
			</g>
			<g>
				<polygon style="fill:#DBDBDB;" points="1451.775,375.354 1450.921,375.352 1377.571,415.317 1377.542,427.024 1451.746,386.594 
									"/>
			</g>
		</g>
		<g>
			<path style="fill:#FFFFFF;" d="M1400.119,316.956c-0.188,0-0.377-0.015-0.566-0.045c-22.751-3.638-43.588-15.321-58.673-32.897
				c-15.245-17.762-23.609-40.452-23.551-63.89c0.065-26.118,10.297-50.646,28.81-69.068c18.514-18.422,43.074-28.508,69.211-28.467
				c26.118,0.065,50.646,10.296,69.069,28.81c18.422,18.514,28.531,43.094,28.467,69.211c-0.115,46.283-33.081,86.493-78.386,95.612
				c-1.139,0.227-2.317-0.108-3.162-0.903c-0.845-0.795-1.253-1.951-1.094-3.101c1.673-12.079,5.629-26.283,10.867-39.289
				c-4.187,1.033-8.661,1.436-12.562,0.261c-6.865-2.069-13.452-6.227-18.049-11.261c-3.616,3.583-8.031,7.324-13.173,11.161
				c-2.102,1.567-4.192,2.914-6.247,4.023c5.161,12.15,9.579,25.672,12.468,35.222c0.357,1.182,0.081,2.464-0.73,3.394
				C1402.132,316.516,1401.145,316.956,1400.119,316.956z M1415.101,129.755c-24.117,0-46.804,9.363-63.907,26.381
				c-17.157,17.072-26.639,39.803-26.699,64.006c-0.054,21.72,7.696,42.746,21.822,59.205c12.698,14.794,29.79,25.084,48.611,29.373
				c-2.739-8.652-6.364-19.206-10.452-28.827c-8.363,2.474-16.053,0.648-21.475-5.216c-5.761-6.231-7.772-15.921-4.578-22.059
				c1.986-3.818,5.664-5.662,10.088-5.061c6.385,0.868,12.664,8.199,19.638,22.992c1.597-0.893,3.233-1.963,4.894-3.203
				c5.29-3.947,9.735-7.755,13.247-11.346c-3.097-6.024-2.551-11.878,1.626-16.034c4.683-4.659,9.441-4.278,11.882-1.952
				c1.482,1.413,5.283,6.761-4.43,18.605c3.718,4.275,9.436,7.956,15.249,9.708c3.233,0.975,8.398,0.188,14.307-2.158
				c4.745-10.086,11.644-21.889,18.614-23.808c2.196-0.605,4.308-0.271,6.107,0.966c2.51,1.727,3.731,4.292,3.438,7.223
				c-0.745,7.448-12.066,16.25-22.804,21.126c-5.479,12.203-9.846,26.091-12.098,38.338c39.336-10.327,67.437-46.287,67.539-87.424
				c0.06-24.204-9.309-46.982-26.38-64.139c-17.072-17.157-39.803-26.639-64.007-26.699
				C1415.256,129.756,1415.178,129.755,1415.101,129.755z M1366.889,254.61c-1.164,0-1.7,0.529-2.11,1.316
				c-1.591,3.057-0.439,9.645,3.483,13.886c2.44,2.639,6.625,5.142,13.252,3.475c-7.856-16.53-12.631-18.447-13.969-18.629
				C1367.307,254.626,1367.089,254.61,1366.889,254.61z M1465.555,247.233c-1.153,0-4.693,2.929-9.453,11.019
				c5.959-4.048,9.638-8.282,9.851-10.413c0.024-0.24,0.033-0.329-0.369-0.605C1465.575,247.233,1465.565,247.233,1465.555,247.233z
				 M1414.581,243.804c-0.426,0.229-0.979,0.615-1.611,1.244c-1.398,1.391-1.682,3.058-1.382,4.724
				C1413.601,246.924,1414.368,244.932,1414.581,243.804z"/>
		</g>
	</g>
	<g>
		<g>
			<g>
				<path style="fill:#808083;" d="M1446.305,622.987c9.817-1.063,18.251-3.562,25.069-7.426c5.625-3.189,10.164-7.3,13.491-12.221
					c3.413-5.048,4.835-9.931,5.428-13.138c2.727-0.416,5.386-0.865,7.969-1.349c14.695-2.753,27.123-6.617,36.942-11.483
					c17.35-8.6,20.969-17.562,21.324-18.556c0.348-0.971,0.323-1.985,0-2.885v0c-0.001-0.001-0.001-0.003-0.001-0.005
					c-0.001-0.003-0.003-0.006-0.004-0.009c-0.38-1.053-4.039-9.977-21.319-18.542c-9.818-4.866-22.246-8.73-36.942-11.483
					c-2.551-0.478-5.177-0.922-7.87-1.334c-0.525-3.179-1.904-8.35-5.527-13.709c-3.327-4.921-7.866-9.032-13.491-12.221
					c-6.818-3.865-15.252-6.363-25.069-7.426c-18.43-1.995-33.218-0.734-43.953,3.749c-9.86,4.118-14.588,10.151-17.286,14.33
					c-0.455,0.706-0.685,1.513-0.685,2.323c0,0.733,0.188,1.467,0.566,2.127c0.795,1.389,2.298,2.219,3.897,2.152
					c0.081-0.003,8.214-0.33,17.316,0.418c15.089,1.24,20.311,4.273,22.08,5.97c0.987,0.947,1.114,1.686,1.114,2.224
					c0,0.094,0.008,0.185,0.014,0.278c-0.006,0.092-0.014,0.184-0.014,0.278v9.418l-22.762-10.692
					c-1.326-0.623-2.879-0.525-4.117,0.261c-1.237,0.786-1.987,2.15-1.987,3.615v59.44c0,0.001,0,0.003,0,0.004
					c0,2.365,1.917,4.283,4.283,4.283c0.723,0,1.405-0.179,2.001-0.495l22.581-10.607v9.418c0,0.538-0.127,1.278-1.114,2.225
					c-1.77,1.697-6.992,4.73-22.08,5.97c-9.102,0.748-17.235,0.421-17.315,0.418c-1.599-0.068-3.103,0.762-3.898,2.151
					c-0.378,0.66-0.566,1.394-0.566,2.127c0,0.81,0.229,1.618,0.685,2.323c2.698,4.179,7.426,10.211,17.286,14.33
					C1413.087,623.721,1427.875,624.982,1446.305,622.987z M1437.276,520.78c-0.613-1.715-1.657-3.303-3.11-4.695
					c-4.677-4.484-13.639-7.208-27.397-8.33c-3.105-0.253-6.075-0.389-8.685-0.457c1.957-1.594,4.415-3.127,7.568-4.444
					c9.386-3.92,22.753-4.976,39.73-3.138c8.496,0.92,15.718,3.003,21.463,6.192c4.455,2.473,8.041,5.62,10.659,9.354
					c2.062,2.941,3.208,5.815,3.846,8.068C1468.078,521.746,1453.33,520.892,1437.276,520.78z M1545.109,554.427
					c1.164,1.183,1.959,2.193,2.486,2.955c-1.641,2.356-5.996,7.257-16.196,12.313c-3.829,1.898-8.114,3.636-12.825,5.207
					c-2.875-9.787-2.649-19.019-1.878-25.295c0.507-4.121,1.302-7.498,1.933-9.748c4.075,1.361,7.83,2.847,11.247,4.454
					C1537.996,548.13,1542.641,551.92,1545.109,554.427z M1409.054,580.348v-45.954l20.3,9.535v26.883L1409.054,580.348z
					 M1437.92,573.532V541.21v-11.86c21.744,0.181,40.98,1.753,57.232,4.678c5.422,0.976,10.515,2.103,15.26,3.373
					c-1.185,4.166-2.809,11.506-2.809,20.451c0,5.946,0.724,12.603,2.765,19.505c-4.282,1.144-8.847,2.172-13.684,3.078
					c-16.578,3.106-36.331,4.772-58.764,4.959V573.532z M1405.653,611.333c-3.153-1.317-5.61-2.85-7.568-4.444
					c2.61-0.068,5.579-0.204,8.685-0.457c13.758-1.121,22.72-3.846,27.397-8.33c1.294-1.241,2.263-2.636,2.893-4.138
					c16.069-0.105,30.832-0.953,44.121-2.531c-0.665,2.157-1.786,4.796-3.676,7.492c-2.618,3.734-6.204,6.882-10.659,9.354
					c-5.745,3.189-12.967,5.272-21.463,6.192C1428.406,616.309,1415.039,615.253,1405.653,611.333z"/>
			</g>
		</g>
		<g>
			<g>
				<path style="fill:#808083;" d="M1326.578,557.093c0-1.768,1.232-3.201,2.753-3.201h54.132c1.52,0,2.753,1.433,2.753,3.201
					c0,1.768-1.232,3.201-2.753,3.201h-54.132C1327.811,560.295,1326.578,558.862,1326.578,557.093z"/>
			</g>
		</g>
		<g>
			<g>
				<path style="fill:#808083;" d="M1338.661,601.727c0-1.229,0.612-2.401,1.641-2.93l42.049-21.61
					c1.391-0.715,3.016,0.017,3.631,1.634c0.615,1.617-0.015,3.508-1.405,4.222l-42.049,21.61c-1.391,0.715-3.016-0.017-3.631-1.634
					C1338.736,602.599,1338.661,602.16,1338.661,601.727z"/>
			</g>
		</g>
		<g>
			<g>
				<path style="fill:#808083;" d="M1338.661,512.032c0-0.432,0.076-0.871,0.235-1.292c0.615-1.617,2.24-2.349,3.631-1.634
					l42.049,21.61c1.391,0.714,2.02,2.605,1.405,4.222c-0.615,1.617-2.24,2.349-3.631,1.634l-42.049-21.61
					C1339.272,514.433,1338.661,513.261,1338.661,512.032z"/>
			</g>
		</g>
	</g>
	<g>
		<g>
			<polygon style="fill:#BCB39A;" points="1618.006,281.244 1573.938,384.16 1529.869,487.076 1618.006,487.076 1706.144,487.076 
				1662.075,384.16 			"/>
		</g>
		<g>
			<polygon style="fill:#E5E5E6;" points="1618.006,281.244 1662.075,384.16 1706.144,487.076 1746.624,418.466 			"/>
		</g>
	</g>
	<g>
		<g>
			<g>
				<g>
					<g>
						<g>
							<path style="fill:#BCB39A;" d="M1498.946,1007.074c27.63-6.867,47.529-32.212,47.529-60.812
								c0-21.073-10.299-40.316-27.689-52.003c3.168-4.735,4.889-10.352,4.889-16.088c0-14.241-10.138-26.121-23.932-28.501
								c-0.712-24.029-20.481-43.353-44.678-43.353c-23.93,0-43.889,19.364-44.662,43.24c-0.023,0.141-0.034,0.282-0.034,0.431
								v134.88c-0.421,2.522-0.635,5.061-0.635,7.553c0,25.26,20.549,45.807,45.805,45.807
								C1475.082,1038.228,1492.719,1025.488,1498.946,1007.074z"/>
						</g>
					</g>
				</g>
			</g>
			<g>
				<g>
					<path style="fill:#FFFFFF;" d="M1505.373,840.498c-12.645,3.151-25.564,9.638-29.279,23.187
						c-1.998,7.289-0.287,14.68-0.72,22.076c-0.22,3.77-1.313,7.339-3.993,10.115c-1.18,1.222-5.584,4.186-6.473,3.743
						c-6.171-3.08-11.622,6.189-5.425,9.281c6.152,3.07,13.216,0.028,18.09-4.148c6.515-5.581,8.693-13.749,8.598-22.043
						c-0.085-7.486-1.849-15.598,3.163-21.992c4.502-5.743,12.104-8.161,18.895-9.853
						C1514.939,849.191,1512.097,838.823,1505.373,840.498L1505.373,840.498z"/>
				</g>
			</g>
			<g>
				<g>
					<path style="fill:#FFFFFF;" d="M1483.718,862.537c-4.301-2.556-8.544-5.445-13.388-6.893
						c-4.615-1.379-9.181-0.962-13.838-0.107c-8.053,1.479-14.32,3.753-19.75-3.971c-3.949-5.616-13.272-0.251-9.281,5.425
						c5.587,7.946,12.589,12.022,22.402,10.698c4.311-0.582,8.598-2.086,12.947-2.274c5.83-0.252,10.716,3.57,15.484,6.403
						C1484.253,875.36,1489.666,866.071,1483.718,862.537L1483.718,862.537z"/>
				</g>
			</g>
			<g>
				<g>
					<path style="fill:#FFFFFF;" d="M1408.8,986.13c-0.97-5.205-1.241-11.077,2.702-15.128c3.324-3.416,8.345-4.968,12.734-6.477
						c10.936-3.76,22.724-7.635,28.091-18.859c2.969-6.21-6.295-11.67-9.281-5.425c-5.267,11.015-19.152,12.413-29.252,16.808
						c-5.179,2.254-10.046,5.439-13.049,10.358c-3.994,6.541-3.66,14.326-2.308,21.58
						C1399.7,995.779,1410.062,992.903,1408.8,986.13L1408.8,986.13z"/>
				</g>
			</g>
			<g>
				<g>
					<path style="fill:#FFFFFF;" d="M1426.189,957.463c-0.011,8.237,3.876,14.789,10.13,19.922
						c5.573,4.574,12.768,8.013,16.4,14.499c3.38,6.036,12.668,0.623,9.281-5.425c-3.459-6.177-9.139-10.167-14.764-14.213
						c-5.298-3.811-10.308-7.735-10.299-14.782C1436.947,950.546,1426.198,950.536,1426.189,957.463L1426.189,957.463z"/>
				</g>
			</g>
			<g>
				<g>
					<path style="fill:#FFFFFF;" d="M1515.963,1015.7c-6.362-4.867-11.351-12.07-15.474-18.831
						c-3.606-5.913-6.193-11.71-6.743-18.665c-0.866-10.958,0.969-28.446,12.872-33.293c6.322-2.574,3.557-12.977-2.857-10.365
						c-16.527,6.729-21.806,26.042-20.843,42.497c1.081,18.479,13.127,36.852,27.62,47.939
						C1516.03,1029.183,1521.389,1019.851,1515.963,1015.7L1515.963,1015.7z"/>
				</g>
			</g>
			<g>
				<g>
					<path style="fill:#FFFFFF;" d="M1398.755,877.729c14.968,8.706,25.454,22.689,28.7,39.781
						c1.289,6.788,11.651,3.914,10.365-2.858c-3.738-19.684-16.454-36.209-33.64-46.205
						C1398.189,864.963,1392.771,874.249,1398.755,877.729L1398.755,877.729z"/>
				</g>
			</g>
		</g>
		<g>
			<g>
				<g>
					<g>
						<g>
							<path style="fill:#BCB39A;" d="M1352.076,1038.228c25.256,0,45.805-20.547,45.805-45.807c0-2.492-0.214-5.031-0.635-7.553
								v-134.88c0-0.149-0.01-0.291-0.034-0.431c-0.773-23.876-20.733-43.24-44.662-43.24c-24.198,0-43.967,19.323-44.679,43.353
								c-13.794,2.381-23.932,14.26-23.932,28.501c0,5.736,1.721,11.353,4.889,16.088c-17.39,11.687-27.689,30.93-27.689,52.003
								c0,28.601,19.899,53.945,47.529,60.812C1314.894,1025.488,1332.531,1038.228,1352.076,1038.228z"/>
						</g>
					</g>
				</g>
			</g>
			<g>
				<g>
					<path style="fill:#FFFFFF;" d="M1299.383,850.863c6.64,1.655,13.929,3.972,18.496,9.401c5.432,6.458,3.65,14.703,3.562,22.444
						c-0.092,8.063,1.938,16.029,8.104,21.636c4.868,4.428,12.281,7.701,18.585,4.555c6.19-3.089,0.752-12.364-5.425-9.281
						c-0.888,0.443-5.293-2.521-6.473-3.743c-2.485-2.573-3.619-5.861-3.955-9.356c-0.735-7.652,1.317-15.263-0.758-22.834
						c-3.714-13.546-16.633-20.036-29.278-23.187C1295.528,838.825,1292.664,849.189,1299.383,850.863L1299.383,850.863z"/>
				</g>
			</g>
			<g>
				<g>
					<path style="fill:#FFFFFF;" d="M1329.32,871.818c4.795-2.849,9.634-6.613,15.484-6.403c4.341,0.156,8.645,1.695,12.947,2.274
						c9.814,1.322,16.812-2.747,22.402-10.698c3.987-5.67-5.328-11.047-9.281-5.425c-5.419,7.707-11.707,5.455-19.75,3.971
						c-4.657-0.86-9.224-1.266-13.839,0.107c-4.844,1.441-9.089,4.338-13.388,6.893
						C1317.953,866.067,1323.354,875.363,1329.32,871.818L1329.32,871.818z"/>
				</g>
			</g>
			<g>
				<g>
					<path style="fill:#FFFFFF;" d="M1409.178,988.987c1.328-7.129,1.687-14.766-2.109-21.258
						c-2.977-5.091-7.959-8.376-13.249-10.681c-10.1-4.401-23.984-5.791-29.252-16.808c-2.983-6.238-12.254-0.791-9.281,5.425
						c5.366,11.222,17.156,15.101,28.091,18.859c4.3,1.477,9.118,2.992,12.472,6.214c4.195,4.031,3.957,10.063,2.964,15.391
						C1397.553,992.891,1407.911,995.79,1409.178,988.987L1409.178,988.987z"/>
				</g>
			</g>
			<g>
				<g>
					<path style="fill:#FFFFFF;" d="M1370.676,957.463c0.009,7.04-5.004,10.974-10.299,14.782
						c-5.625,4.046-11.304,8.035-14.764,14.213c-3.384,6.042,5.897,11.468,9.281,5.425c3.628-6.479,10.825-9.938,16.4-14.499
						c6.258-5.12,10.141-11.694,10.13-19.922C1381.415,950.547,1370.667,950.535,1370.676,957.463L1370.676,957.463z"/>
				</g>
			</g>
			<g>
				<g>
					<path style="fill:#FFFFFF;" d="M1297.075,1024.982c14.495-11.086,26.54-29.46,27.621-47.939
						c0.963-16.455-4.316-35.767-20.843-42.497c-6.403-2.607-9.19,7.786-2.857,10.365c11.903,4.847,13.739,22.332,12.872,33.293
						c-0.529,6.692-2.928,12.303-6.356,18.021c-4.197,7-9.304,14.46-15.861,19.476
						C1286.229,1019.846,1291.577,1029.187,1297.075,1024.982L1297.075,1024.982z"/>
				</g>
			</g>
			<g>
				<g>
					<path style="fill:#FFFFFF;" d="M1403.433,868.448c-17.186,9.996-29.902,26.521-33.64,46.205
						c-1.284,6.76,9.074,9.656,10.365,2.858c3.246-17.093,13.731-31.075,28.701-39.781
						C1414.835,874.253,1409.43,864.96,1403.433,868.448L1403.433,868.448z"/>
				</g>
			</g>
		</g>
	</g>
	<g>
		<g>
			
				<ellipse transform="matrix(0.7071 -0.7071 0.7071 0.7071 -257.92 403.6065)" style="fill:#BCB39A;" cx="358.236" cy="513.14" rx="67.07" ry="67.07"/>
		</g>
		<g>
			<circle style="fill:#59595B;" cx="358.236" cy="513.14" r="40.447"/>
		</g>
		<g>
			<path style="fill:#FFFFFF;" d="M358.236,557.17c-24.278,0-44.03-19.752-44.03-44.03c0-24.278,19.752-44.03,44.03-44.03
				c24.278,0,44.03,19.752,44.03,44.03C402.266,537.419,382.514,557.17,358.236,557.17z M358.236,476.276
				c-20.327,0-36.864,16.537-36.864,36.864c0,20.327,16.537,36.864,36.864,36.864c20.327,0,36.864-16.537,36.864-36.864
				C395.1,492.814,378.563,476.276,358.236,476.276z"/>
		</g>
		<g>
			
				<ellipse transform="matrix(0.9732 -0.2298 0.2298 0.9732 -102.2259 88.9563)" style="fill:#FFFFFF;" cx="330.892" cy="483.466" rx="19.248" ry="19.247"/>
		</g>
	</g>
	<g>
		<path style="fill:#5EA49B;" d="M57.094,657.182c0,29.476,23.895,53.371,53.371,53.371V603.811
			C80.989,603.811,57.094,627.706,57.094,657.182z"/>
	</g>
	<g>
		<path style="fill:#E5E5E6;" d="M110.465,603.811v106.741c29.476,0,53.371-23.895,53.371-53.371
			C163.836,627.706,139.941,603.811,110.465,603.811z"/>
	</g>
	<g>
		<rect x="318.915" y="629.687" style="fill:#E5E5E6;" width="44.834" height="89.669"/>
	</g>
	<g>
		<rect x="274.081" y="629.687" style="fill:#5EA49B;" width="44.835" height="89.669"/>
	</g>
	<g>
		<polygon style="fill:#5EA49B;" points="157.683,720.075 128.872,769.976 186.493,769.976 186.493,670.174 		"/>
	</g>
	<g>
		<polygon style="fill:#E5E5E6;" points="186.493,670.174 186.493,769.976 244.113,769.976 215.303,720.075 		"/>
	</g>
	<g>
		<g>
			<rect x="233.802" y="808.248" style="fill:#A5A5A9;" width="288.41" height="189.121"/>
		</g>
		<g>
			<rect x="258.797" y="834.095" style="fill:#FFFFFF;" width="238.42" height="137.429"/>
		</g>
		<g>
			<rect x="335.003" y="997.37" style="fill:#59595C;" width="86.009" height="24.303"/>
		</g>
		<g>
			<rect x="309.75" y="1021.672" style="fill:#A5A5A9;" width="136.514" height="13.108"/>
		</g>
		<g>
			<path style="fill:#E5E4E4;" d="M507.726,982.884H248.288V822.734h259.438V982.884z M250.079,981.092h255.855V824.526H250.079
				V981.092z"/>
		</g>
		<g>
			<g>
				<polygon style="fill:#BCB39A;" points="417.548,876.358 378.007,853.529 338.466,876.358 378.007,899.187 				"/>
			</g>
			<g>
				<polygon style="fill:#808083;" points="338.466,876.358 338.466,922.016 378.007,944.846 378.007,899.187 				"/>
			</g>
			<g>
				<polygon style="fill:#F1EFEA;" points="378.007,899.187 378.007,944.846 417.548,922.016 417.548,876.358 				"/>
			</g>
		</g>
	</g>
	<g>
		<g>
			
				<rect x="1110.915" y="975.674" transform="matrix(0.7071 -0.7071 0.7071 0.7071 -367.308 1082.0314)" style="fill:#BCB39A;" width="23.222" height="17.478"/>
		</g>
		<g>
			<g>
				<path style="fill:#6D6E6F;" d="M1204.695,981.719c21.947-21.946,21.947-57.529,0-79.476c-21.946-21.946-57.53-21.946-79.475,0
					c-21.947,21.947-21.947,57.53,0,79.476C1147.166,1003.666,1182.749,1003.666,1204.695,981.719z M1136.862,970.077
					c-15.516-15.517-15.516-40.675,0-56.192c15.518-15.516,40.675-15.516,56.192,0c15.516,15.517,15.516,40.675,0,56.192
					C1177.536,985.594,1152.379,985.594,1136.862,970.077z"/>
			</g>
		</g>
		<g>
			
				<rect x="1103.055" y="982.942" transform="matrix(0.7071 -0.7071 0.7071 0.7071 -380.1781 1076.7667)" style="fill:#6D6E6F;" width="13.193" height="28.692"/>
		</g>
		<g>
			
				<rect x="1046.908" y="1015.144" transform="matrix(0.7071 -0.7071 0.7071 0.7071 -408.9012 1064.8439)" style="fill:#5EA49B;" width="68.044" height="21.73"/>
		</g>
		<g>
			<path style="fill:#FFFFFF;" d="M1164.958,992.383c-13.463,0-26.12-5.243-35.639-14.763c-9.52-9.52-14.763-22.176-14.763-35.639
				s5.243-26.12,14.763-35.639c19.651-19.651,51.626-19.652,71.278,0c9.52,9.52,14.762,22.177,14.762,35.639
				s-5.243,26.119-14.762,35.639l0,0l0,0C1191.077,987.14,1178.42,992.383,1164.958,992.383z M1164.958,893.394
				c-12.449,0-24.895,4.737-34.372,14.214c-9.181,9.182-14.238,21.389-14.238,34.372c0,12.984,5.056,25.191,14.238,34.372
				c9.181,9.181,21.388,14.238,34.372,14.238c12.984,0,25.191-5.057,34.372-14.238l0,0c9.181-9.181,14.238-21.388,14.238-34.372
				c0-12.984-5.056-25.191-14.238-34.372C1189.855,898.134,1177.404,893.394,1164.958,893.394z"/>
		</g>
	</g>
	<g>
		<path style="fill:#FFFFFF;" d="M730.734,88.363H455.113c-6.033,0-10.941,4.908-10.941,10.941v35.398
			c0,6.033,4.908,10.941,10.941,10.941h275.621c6.033,0,10.941-4.908,10.941-10.941V99.304
			C741.675,93.271,736.767,88.363,730.734,88.363z M461.168,139.023h-3.225v0v0h-3.225v-16.147h6.449V139.023z M476.095,139.023
			h-3.225v0v0h-3.225v-16.147h6.449V139.023z M491.023,139.023h-3.225v0v0h-3.225v-22.02h3.225v0v0h3.225V139.023z M505.95,139.023
			h-3.225v0v0H499.5v-16.147h6.449V139.023z M520.877,139.023h-3.225v0v0h-3.225v-16.147h6.449V139.023z M535.804,139.023h-3.225v0
			v0h-3.225v-22.02h3.225v0v0h3.225V139.023z M550.731,139.023h-3.225v0v0h-3.225v-16.147h6.449V139.023z M565.658,139.023h-3.225v0
			v0h-3.225v-16.147h6.449V139.023z M580.585,139.023h-3.225v0v0h-3.225v-22.02h3.225v0v0h3.225V139.023z M595.512,139.023h-3.225v0
			v0h-3.225v-16.147h6.449V139.023z M610.44,139.023h-3.225v0v0h-3.224v-16.147h6.449V139.023z M625.367,139.023h-3.225v0v0h-3.225
			v-22.02h3.225v0v0h3.225V139.023z M640.294,139.023h-3.224v0v0h-3.225v-16.147h6.449V139.023z M655.221,139.023h-3.225v0v0h-3.225
			v-16.147h6.449V139.023z M670.148,139.023h-3.225v0v0h-3.225v-22.02h3.225v0v0h3.225V139.023z M685.075,139.023h-3.225v0v0h-3.225
			v-16.147h6.449V139.023z M700.002,139.023h-3.225v0v0h-3.225v-16.147h6.449V139.023z M714.929,139.023h-3.225v0v0h-3.225v-22.02
			h3.225v0v0h3.225V139.023z M729.856,139.023h-3.225v0v0h-3.225v-16.147h6.449V139.023z"/>
		<path style="fill:#A5A6A9;" d="M730.734,81.197H455.113c-9.984,0-18.107,8.122-18.107,18.107v35.398
			c0,9.984,8.123,18.107,18.107,18.107h275.621c9.984,0,18.107-8.123,18.107-18.107V99.304
			C748.841,89.32,740.718,81.197,730.734,81.197z M745.258,134.702c0,8.021-6.503,14.524-14.524,14.524H455.113
			c-8.021,0-14.524-6.503-14.524-14.524V99.304c0-8.021,6.503-14.524,14.524-14.524h275.621c8.021,0,14.524,6.503,14.524,14.524
			V134.702z"/>
		<path style="fill:#A5A6A9;" d="M730.734,84.78H455.113c-8.021,0-14.524,6.503-14.524,14.524v35.398
			c0,8.021,6.503,14.524,14.524,14.524h275.621c8.021,0,14.524-6.503,14.524-14.524V99.304
			C745.258,91.283,738.755,84.78,730.734,84.78z M741.675,134.702c0,6.033-4.908,10.941-10.941,10.941H455.113
			c-6.033,0-10.941-4.908-10.941-10.941V99.304c0-6.033,4.908-10.941,10.941-10.941h275.621c6.033,0,10.941,4.908,10.941,10.941
			V134.702z"/>
		<polygon style="fill:#A5A6A9;" points="454.719,139.023 457.944,139.023 457.944,122.877 457.944,139.023 461.168,139.023 
			461.168,122.877 454.719,122.877 		"/>
		<polygon style="fill:#A5A6A9;" points="469.646,139.023 472.871,139.023 472.871,122.877 472.871,139.023 476.095,139.023 
			476.095,122.877 469.646,122.877 		"/>
		<rect x="487.798" y="117.003" style="fill:#A5A6A9;" width="3.225" height="22.02"/>
		<rect x="484.573" y="117.003" style="fill:#A5A6A9;" width="3.225" height="22.02"/>
		<polygon style="fill:#A5A6A9;" points="499.5,139.023 502.725,139.023 502.725,122.877 502.725,139.023 505.95,139.023 
			505.95,122.877 499.5,122.877 		"/>
		<polygon style="fill:#A5A6A9;" points="514.428,139.023 517.652,139.023 517.652,122.877 517.652,139.023 520.877,139.023 
			520.877,122.877 514.428,122.877 		"/>
		<rect x="532.579" y="117.003" style="fill:#A5A6A9;" width="3.225" height="22.02"/>
		<rect x="529.355" y="117.003" style="fill:#A5A6A9;" width="3.225" height="22.02"/>
		<polygon style="fill:#A5A6A9;" points="544.282,139.023 547.506,139.023 547.506,122.877 547.506,139.023 550.731,139.023 
			550.731,122.877 544.282,122.877 		"/>
		<polygon style="fill:#A5A6A9;" points="559.209,139.023 562.434,139.023 562.434,122.877 562.434,139.023 565.658,139.023 
			565.658,122.877 559.209,122.877 		"/>
		<rect x="574.136" y="117.003" style="fill:#A5A6A9;" width="3.225" height="22.02"/>
		<rect x="577.361" y="117.003" style="fill:#A5A6A9;" width="3.224" height="22.02"/>
		<polygon style="fill:#A5A6A9;" points="589.063,139.023 592.288,139.023 592.288,122.877 592.288,139.023 595.512,139.023 
			595.512,122.877 589.063,122.877 		"/>
		<polygon style="fill:#A5A6A9;" points="603.99,139.023 607.215,139.023 607.215,122.877 607.215,139.023 610.44,139.023 
			610.44,122.877 603.99,122.877 		"/>
		<rect x="622.142" y="117.003" style="fill:#A5A6A9;" width="3.225" height="22.02"/>
		<rect x="618.917" y="117.003" style="fill:#A5A6A9;" width="3.225" height="22.02"/>
		<polygon style="fill:#A5A6A9;" points="633.844,139.023 637.069,139.023 637.069,122.877 637.069,139.023 640.294,139.023 
			640.294,122.877 633.844,122.877 		"/>
		<polygon style="fill:#A5A6A9;" points="648.772,139.023 651.996,139.023 651.996,122.877 651.996,139.023 655.221,139.023 
			655.221,122.877 648.772,122.877 		"/>
		<rect x="666.924" y="117.003" style="fill:#A5A6A9;" width="3.225" height="22.02"/>
		<rect x="663.699" y="117.003" style="fill:#A5A6A9;" width="3.225" height="22.02"/>
		<polygon style="fill:#A5A6A9;" points="678.626,139.023 681.851,139.023 681.851,122.877 681.851,139.023 685.075,139.023 
			685.075,122.877 678.626,122.877 		"/>
		<polygon style="fill:#A5A6A9;" points="693.553,139.023 696.778,139.023 696.778,122.877 696.778,139.023 700.002,139.023 
			700.002,122.877 693.553,122.877 		"/>
		<rect x="711.705" y="117.003" style="fill:#A5A6A9;" width="3.225" height="22.02"/>
		<rect x="708.48" y="117.003" style="fill:#A5A6A9;" width="3.225" height="22.02"/>
		<polygon style="fill:#A5A6A9;" points="723.407,139.023 726.632,139.023 726.632,122.877 726.632,139.023 729.856,139.023 
			729.856,122.877 723.407,122.877 		"/>
	</g>
	<g>
		<g>
			<path style="fill:#A5A6A9;" d="M702.896,957.939c-30.334,4.148-28.795-52.112-68.662-54.579
				c-41.381-2.561-66.682,34.778-52.914,71.635c13.768,36.857,111.788,99.781,160.267,47.096
				c20.673-22.468,39.472-60.162,10.962-84.925C733.617,920.721,731.056,954.088,702.896,957.939z"/>
		</g>
		<g>
			<path style="fill:#FFFFFF;" d="M630.043,962.534c0,8.375-6.79,15.165-15.165,15.165l0,0c-8.375,0-15.165-6.79-15.165-15.165l0,0
				c0-8.375,6.79-15.165,15.165-15.165l0,0C623.253,947.369,630.043,954.158,630.043,962.534L630.043,962.534z"/>
		</g>
		<g>
			<path style="fill:#FFFFFF;" d="M664.065,995.557c0,8.375-6.789,15.165-15.165,15.165l0,0c-8.375,0-15.165-6.79-15.165-15.165l0,0
				c0-8.375,6.79-15.165,15.165-15.165l0,0C657.276,980.392,664.065,987.182,664.065,995.557L664.065,995.557z"/>
		</g>
		<g>
			<path style="fill:#FFFFFF;" d="M715.823,1007.895c0,8.375-6.789,15.165-15.165,15.165l0,0c-8.375,0-15.165-6.79-15.165-15.165
				l0,0c0-8.375,6.789-15.165,15.165-15.165l0,0C709.033,992.73,715.823,999.519,715.823,1007.895L715.823,1007.895z"/>
		</g>
		<g>
			<path style="fill:#FFFFFF;" d="M747.885,982.467c0,7.229-5.861,13.09-13.09,13.09l0,0c-7.23,0-13.09-5.861-13.09-13.09l0,0
				c0-7.229,5.861-13.09,13.09-13.09l0,0C742.024,969.377,747.885,975.238,747.885,982.467L747.885,982.467z"/>
		</g>
	</g>
	<g>
		<g>
			<path style="fill:#808083;" d="M1033.348,63.77l62.258,166.488h-38.008l-12.591-37.075h-62.258l-13.058,37.075h-36.842
				L995.807,63.77H1033.348z M1035.447,165.902l-20.986-61.092h-0.466l-21.686,61.092H1035.447z"/>
		</g>
		<g>
			<path style="fill:#CFD1D2;" d="M1105.166,146.781c0.466-7.771,2.408-14.224,5.829-19.354c3.418-5.13,7.772-9.247,13.058-12.358
				c5.283-3.108,11.229-5.323,17.838-6.646c6.606-1.319,13.251-1.982,19.937-1.982c6.063,0,12.202,0.43,18.421,1.283
				c6.216,0.856,11.892,2.528,17.022,5.013c5.13,2.489,9.327,5.946,12.592,10.376c3.265,4.43,4.897,10.3,4.897,17.605v62.724
				c0,5.443,0.31,10.65,0.933,15.623c0.619,4.977,1.709,8.708,3.264,11.192h-33.577c-0.623-1.865-1.129-3.767-1.516-5.713
				c-0.39-1.942-0.663-3.924-0.816-5.946c-5.287,5.443-11.506,9.251-18.654,11.425c-7.152,2.175-14.457,3.265-21.919,3.265
				c-5.753,0-11.116-0.7-16.089-2.099c-4.977-1.399-9.327-3.574-13.058-6.529c-3.731-2.951-6.645-6.682-8.744-11.193
				c-2.098-4.507-3.148-9.87-3.148-16.089c0-6.839,1.202-12.475,3.614-16.905c2.408-4.43,5.516-7.964,9.327-10.61
				c3.807-2.641,8.161-4.623,13.058-5.946c4.896-1.319,9.83-2.368,14.807-3.148c4.973-0.776,9.87-1.399,14.69-1.865
				c4.817-0.466,9.094-1.166,12.824-2.099c3.731-0.933,6.682-2.292,8.861-4.081c2.175-1.785,3.184-4.39,3.031-7.811
				c0-3.574-0.583-6.412-1.749-8.511c-1.166-2.099-2.721-3.731-4.663-4.897c-1.946-1.166-4.197-1.942-6.762-2.332
				c-2.565-0.386-5.327-0.583-8.277-0.583c-6.529,0-11.659,1.399-15.39,4.197c-3.731,2.798-5.909,7.462-6.529,13.991H1105.166z
				 M1181.648,171.264c-1.399,1.246-3.148,2.215-5.247,2.915c-2.098,0.7-4.354,1.283-6.762,1.749
				c-2.412,0.466-4.937,0.856-7.578,1.166c-2.645,0.313-5.287,0.7-7.928,1.166c-2.489,0.466-4.937,1.089-7.345,1.865
				c-2.412,0.78-4.51,1.829-6.296,3.148c-1.789,1.323-3.228,2.995-4.314,5.013c-1.089,2.022-1.632,4.587-1.632,7.695
				c0,2.955,0.543,5.443,1.632,7.462c1.086,2.022,2.565,3.614,4.43,4.78c1.865,1.166,4.04,1.982,6.529,2.448
				c2.485,0.466,5.049,0.699,7.695,0.699c6.529,0,11.579-1.086,15.157-3.264c3.574-2.175,6.216-4.78,7.928-7.811
				c1.709-3.031,2.758-6.099,3.148-9.21c0.386-3.108,0.583-5.596,0.583-7.462V171.264z"/>
		</g>
	</g>
	<g>
		<g>
			
				<ellipse transform="matrix(0.3162 -0.9487 0.9487 0.3162 373.0861 2106.9011)" style="fill:#5EA49B;" cx="1648.128" cy="794.636" rx="56.584" ry="56.584"/>
		</g>
		<g>
			<rect x="1639.14" y="782.536" style="fill:#FFFFFF;" width="17.975" height="51.007"/>
		</g>
		<g>
			<path style="fill:#FFFFFF;" d="M1658.393,764.013c0,5.669-4.596,10.265-10.265,10.265c-5.669,0-10.265-4.596-10.265-10.265
				c0-5.669,4.596-10.265,10.265-10.265C1653.797,753.749,1658.393,758.344,1658.393,764.013z"/>
		</g>
	</g>
	<path style="fill:#E5E4E4;" d="M1261.139,773.138c-18.324,0-33.178,14.854-33.178,33.177c0,18.325,14.854,33.179,33.178,33.179
		c18.323,0,33.178-14.854,33.178-33.179C1294.317,787.991,1279.462,773.138,1261.139,773.138z"/>
	<g style="opacity:0.5;">
		<g>
			<defs>
				
					<rect id="SVGID_00000005962586859282880620000017917762923771177106_" x="1227.959" y="773.136" width="33.184" height="66.362"/>
			</defs>
			<clipPath id="SVGID_00000041976606826033162360000010563224326112123796_">
				<use xlink:href="#SVGID_00000005962586859282880620000017917762923771177106_"  style="overflow:visible;"/>
			</clipPath>
			<g style="clip-path:url(#SVGID_00000041976606826033162360000010563224326112123796_);">
				<path style="fill:#E5E4E4;" d="M1261.139,839.494c-18.324,0-33.178-14.854-33.178-33.179c0-18.324,14.854-33.177,33.178-33.177
					V839.494z"/>
			</g>
		</g>
	</g>
	<path style="fill:#E5E4E4;" d="M1308.367,355.421c-10.949,0-19.825,8.876-19.825,19.825c0,10.95,8.875,19.826,19.825,19.826
		c10.949,0,19.825-8.876,19.825-19.826C1328.192,364.297,1319.315,355.421,1308.367,355.421z"/>
	<g style="opacity:0.5;">
		<g>
			<defs>
				
					<rect id="SVGID_00000067227259689467149220000006019888050650054045_" x="1288.541" y="355.42" width="19.829" height="39.653"/>
			</defs>
			<clipPath id="SVGID_00000132089679705165708280000012027647495565225118_">
				<use xlink:href="#SVGID_00000067227259689467149220000006019888050650054045_"  style="overflow:visible;"/>
			</clipPath>
			<g style="clip-path:url(#SVGID_00000132089679705165708280000012027647495565225118_);">
				<path style="fill:#E5E4E4;" d="M1308.367,395.072c-10.949,0-19.825-8.876-19.825-19.826c0-10.949,8.876-19.824,19.825-19.824
					V395.072z"/>
			</g>
		</g>
	</g>
	<path style="fill:#E5E4E4;" d="M116.835,513.141c-7.483,0-13.548,6.065-13.548,13.548c0,7.483,6.066,13.549,13.548,13.549
		c7.482,0,13.549-6.065,13.549-13.549C130.383,519.206,124.317,513.141,116.835,513.141z"/>
	<g style="opacity:0.5;">
		<g>
			<defs>
				<rect id="SVGID_00000107570548729917765380000011327601057453793666_" x="103.286" y="513.14" width="13.551" height="27.099"/>
			</defs>
			<clipPath id="SVGID_00000053515379893932757020000007462403952841556147_">
				<use xlink:href="#SVGID_00000107570548729917765380000011327601057453793666_"  style="overflow:visible;"/>
			</clipPath>
			<g style="clip-path:url(#SVGID_00000053515379893932757020000007462403952841556147_);">
				<path style="fill:#E5E4E4;" d="M116.835,540.238c-7.483,0-13.548-6.065-13.548-13.549c0-7.483,6.066-13.548,13.548-13.548
					V540.238z"/>
			</g>
		</g>
	</g>
	<path style="fill:#E5E4E4;" d="M472.871,350.459c-7.483,0-13.548,6.065-13.548,13.548c0,7.483,6.065,13.549,13.548,13.549
		c7.482,0,13.548-6.065,13.548-13.549C486.42,356.524,480.354,350.459,472.871,350.459z"/>
	<g style="opacity:0.5;">
		<g>
			<defs>
				
					<rect id="SVGID_00000000212635721142496920000016304855597645146518_" x="459.322" y="350.458" width="13.551" height="27.099"/>
			</defs>
			<clipPath id="SVGID_00000021114546075963018290000012152946810526024323_">
				<use xlink:href="#SVGID_00000000212635721142496920000016304855597645146518_"  style="overflow:visible;"/>
			</clipPath>
			<g style="clip-path:url(#SVGID_00000021114546075963018290000012152946810526024323_);">
				<path style="fill:#E5E4E4;" d="M472.871,377.556c-7.483,0-13.548-6.065-13.548-13.549c0-7.483,6.065-13.548,13.548-13.548
					V377.556z"/>
			</g>
		</g>
	</g>
	<path style="fill:#E5E4E4;" d="M440.589,733.839c-9.083,0-16.446,7.363-16.446,16.445c0,9.084,7.363,16.446,16.446,16.446
		c9.082,0,16.446-7.363,16.446-16.446C457.035,741.202,449.672,733.839,440.589,733.839z"/>
	<g style="opacity:0.5;">
		<g>
			<defs>
				
					<rect id="SVGID_00000171718194073234708980000010100503330105216652_" x="424.143" y="733.839" width="16.449" height="32.894"/>
			</defs>
			<clipPath id="SVGID_00000090280647084595059340000008459423180018024620_">
				<use xlink:href="#SVGID_00000171718194073234708980000010100503330105216652_"  style="overflow:visible;"/>
			</clipPath>
			<g style="clip-path:url(#SVGID_00000090280647084595059340000008459423180018024620_);">
				<path style="fill:#E5E4E4;" d="M440.589,766.731c-9.083,0-16.446-7.363-16.446-16.446c0-9.083,7.363-16.445,16.446-16.445
					V766.731z"/>
			</g>
		</g>
	</g>
	<path style="fill:#E5E4E4;" d="M107.665,112.908c-16.474,0-29.829,13.354-29.829,29.828c0,16.476,13.354,29.83,29.829,29.83
		c16.474,0,29.829-13.354,29.829-29.83C137.494,126.263,124.138,112.908,107.665,112.908z"/>
	<g style="opacity:0.5;">
		<g>
			<defs>
				<rect id="SVGID_00000168800208808044515800000017786375078954393531_" x="77.834" y="112.907" width="29.835" height="59.663"/>
			</defs>
			<clipPath id="SVGID_00000073709020966425368540000016466266819242598534_">
				<use xlink:href="#SVGID_00000168800208808044515800000017786375078954393531_"  style="overflow:visible;"/>
			</clipPath>
			<g style="clip-path:url(#SVGID_00000073709020966425368540000016466266819242598534_);">
				<path style="fill:#E5E4E4;" d="M107.665,172.566c-16.474,0-29.829-13.354-29.829-29.83c0-16.474,13.354-29.828,29.829-29.828
					V172.566z"/>
			</g>
		</g>
	</g>
	<g>
		<g>
			<path style="fill:#59595C;" d="M1278.188,719.837c-4.321,0-7.837,3.515-7.837,7.836c0,4.321,3.516,7.837,7.837,7.837
				c4.322,0,7.837-3.516,7.837-7.837C1286.026,723.352,1282.51,719.837,1278.188,719.837z M1278.188,733.361
				c-3.136,0-5.687-2.551-5.687-5.688c0-3.136,2.551-5.687,5.687-5.687c3.136,0,5.688,2.551,5.688,5.687
				C1283.876,730.81,1281.324,733.361,1278.188,733.361z"/>
		</g>
		<g>
			<path style="fill:#BCB39A;" d="M1306.094,693.687c-3.735,0-6.762,3.028-6.762,6.762s3.027,6.762,6.762,6.762
				c3.735,0,6.762-3.027,6.762-6.762S1309.829,693.687,1306.094,693.687z"/>
		</g>
		<g>
			<path style="fill:#A5A5A9;" d="M1345.082,693.687c-3.734,0-6.762,3.028-6.762,6.762s3.028,6.762,6.762,6.762
				c3.734,0,6.762-3.027,6.762-6.762S1348.816,693.687,1345.082,693.687z"/>
		</g>
		<g>
			<path style="fill:#59595C;" d="M1372.6,719.99c-4.322,0-7.837,3.516-7.837,7.837c0,4.322,3.516,7.838,7.837,7.838
				s7.837-3.516,7.837-7.838C1380.437,723.506,1376.921,719.99,1372.6,719.99z M1372.6,733.515c-3.136,0-5.688-2.552-5.688-5.688
				c0-3.136,2.551-5.688,5.688-5.688s5.688,2.551,5.688,5.688C1378.287,730.963,1375.736,733.515,1372.6,733.515z"/>
		</g>
		<g>
			<path style="fill:#5EA49B;" d="M1404.602,721.065c-3.735,0-6.762,3.028-6.762,6.762c0,3.735,3.027,6.763,6.762,6.763
				s6.762-3.028,6.762-6.763C1411.365,724.093,1408.337,721.065,1404.602,721.065z"/>
		</g>
		<g>
			<path style="fill:#A5A5A9;" d="M1426.364,743.523c-3.735,0-6.762,3.028-6.762,6.762c0,3.735,3.028,6.762,6.762,6.762
				c3.735,0,6.762-3.028,6.762-6.762C1433.127,746.551,1430.099,743.523,1426.364,743.523z"/>
		</g>
		<g>
			<path style="fill:#A5A5A9;" d="M1457.855,743.523c-3.735,0-6.763,3.028-6.763,6.762c0,3.735,3.028,6.762,6.763,6.762
				c3.735,0,6.761-3.028,6.761-6.762C1464.616,746.551,1461.59,743.523,1457.855,743.523z"/>
		</g>
		<g>
			<path style="fill:#A5A5A9;" d="M1480.64,720.911c-3.735,0-6.762,3.028-6.762,6.762c0,3.735,3.028,6.762,6.762,6.762
				c3.735,0,6.762-3.028,6.762-6.762C1487.403,723.939,1484.375,720.911,1480.64,720.911z"/>
		</g>
		<g>
			<path style="fill:#A5A5A9;" d="M1215.345,720.911c-3.734,0-6.762,3.028-6.762,6.762c0,3.735,3.028,6.762,6.762,6.762
				c3.735,0,6.762-3.028,6.762-6.762C1222.107,723.939,1219.08,720.911,1215.345,720.911z"/>
		</g>
		<g>
			<path style="fill:#BCB39A;" d="M1527.639,720.911c-3.735,0-6.762,3.028-6.762,6.762c0,3.735,3.027,6.762,6.762,6.762
				c3.735,0,6.762-3.028,6.762-6.762C1534.402,723.939,1531.374,720.911,1527.639,720.911z"/>
		</g>
		<g>
			<path style="fill:#59595C;" d="M1693.687,662.58c-4.321,0-7.837,3.515-7.837,7.836s3.516,7.837,7.837,7.837
				c4.321,0,7.837-3.516,7.837-7.837S1698.008,662.58,1693.687,662.58z M1693.687,676.104c-3.136,0-5.687-2.551-5.687-5.688
				c0-3.136,2.551-5.687,5.687-5.687c3.136,0,5.687,2.551,5.687,5.687C1699.373,673.552,1696.822,676.104,1693.687,676.104z"/>
		</g>
		<g>
			<path style="fill:#A5A5A9;" d="M1665.779,690.878c-3.733,0-6.761,3.028-6.761,6.762c0,3.735,3.028,6.763,6.761,6.763
				c3.735,0,6.763-3.028,6.763-6.763C1672.542,693.906,1669.514,690.878,1665.779,690.878z"/>
		</g>
		<g>
			<path style="fill:#5EA49B;" d="M1626.793,690.878c-3.735,0-6.762,3.028-6.762,6.762c0,3.735,3.027,6.763,6.762,6.763
				c3.734,0,6.763-3.028,6.763-6.763C1633.556,693.906,1630.528,690.878,1626.793,690.878z"/>
		</g>
		<g>
			<path style="fill:#59595C;" d="M1599.275,662.425c-4.321,0-7.837,3.516-7.837,7.837c0,4.321,3.516,7.837,7.837,7.837
				c4.322,0,7.837-3.516,7.837-7.837C1607.112,665.941,1603.596,662.425,1599.275,662.425z M1599.275,675.95
				c-3.136,0-5.687-2.551-5.687-5.688c0-3.136,2.551-5.688,5.687-5.688c3.136,0,5.688,2.552,5.688,5.688
				C1604.962,673.399,1602.411,675.95,1599.275,675.95z"/>
		</g>
		<g>
			<path style="fill:#A5A5A9;" d="M1567.272,663.5c-3.734,0-6.761,3.028-6.761,6.762c0,3.735,3.027,6.762,6.761,6.762
				c3.735,0,6.763-3.028,6.763-6.762C1574.035,666.528,1571.007,663.5,1567.272,663.5z"/>
		</g>
		<g>
			<path style="fill:#A5A5A9;" d="M1545.511,654.566c3.734,0,6.761-3.027,6.761-6.762c0-3.735-3.027-6.762-6.761-6.762
				c-3.735,0-6.763,3.028-6.763,6.762C1538.748,651.539,1541.776,654.566,1545.511,654.566z"/>
		</g>
		<g>
			<path style="fill:#5EA49B;" d="M1514.02,641.042c-3.735,0-6.762,3.028-6.762,6.762c0,3.735,3.027,6.762,6.762,6.762
				s6.762-3.027,6.762-6.762C1520.782,644.069,1517.755,641.042,1514.02,641.042z"/>
		</g>
		<g>
			<path style="fill:#A5A5A9;" d="M1491.235,663.654c-3.735,0-6.763,3.027-6.763,6.762s3.028,6.762,6.763,6.762
				c3.734,0,6.762-3.028,6.762-6.762S1494.969,663.654,1491.235,663.654z"/>
		</g>
		<g>
			<path style="fill:#A5A5A9;" d="M1742.437,663.654c-3.734,0-6.762,3.027-6.762,6.762s3.028,6.762,6.762,6.762
				c3.735,0,6.762-3.028,6.762-6.762S1746.172,663.654,1742.437,663.654z"/>
		</g>
		<g>
			<path style="fill:#59595C;" d="M1444.235,662.58c-4.322,0-7.837,3.515-7.837,7.836s3.516,7.837,7.837,7.837
				s7.837-3.516,7.837-7.837S1448.557,662.58,1444.235,662.58z M1444.235,676.104c-3.136,0-5.688-2.551-5.688-5.688
				c0-3.136,2.551-5.687,5.688-5.687s5.688,2.551,5.688,5.687C1449.923,673.552,1447.372,676.104,1444.235,676.104z"/>
		</g>
		<g>
			<path style="fill:#5EA49B;" d="M1243.46,720.911c-3.735,0-6.762,3.028-6.762,6.762c0,3.735,3.027,6.762,6.762,6.762
				s6.763-3.028,6.763-6.762C1250.222,723.939,1247.195,720.911,1243.46,720.911z"/>
		</g>
		<g>
			<path style="fill:#A5A5A9;" d="M1306.038,671.685c3.735,0,6.763-3.027,6.763-6.762c0-3.735-3.028-6.763-6.763-6.763
				c-3.735,0-6.762,3.028-6.762,6.763C1299.276,668.657,1302.303,671.685,1306.038,671.685z"/>
		</g>
		<g>
			<path style="fill:#A5A5A9;" d="M1378.594,658.929c-3.735,0-6.762,3.027-6.762,6.762c0,3.735,3.027,6.762,6.762,6.762
				c3.734,0,6.761-3.028,6.761-6.762C1385.356,661.956,1382.329,658.929,1378.594,658.929z"/>
		</g>
		<g>
			<path style="fill:#A5A5A9;" d="M1404.602,686.893c-3.735,0-6.762,3.027-6.762,6.762c0,3.735,3.027,6.762,6.762,6.762
				s6.762-3.028,6.762-6.762C1411.365,689.92,1408.337,686.893,1404.602,686.893z"/>
		</g>
		<g>
			<path style="fill:#59595C;" d="M1546.182,685.819c-4.322,0-7.837,3.515-7.837,7.836c0,4.322,3.516,7.837,7.837,7.837
				s7.837-3.516,7.837-7.837C1554.019,689.334,1550.503,685.819,1546.182,685.819z M1546.182,699.343
				c-3.136,0-5.688-2.552-5.688-5.688c0-3.135,2.551-5.686,5.688-5.686s5.688,2.551,5.688,5.686
				C1551.869,696.791,1549.318,699.343,1546.182,699.343z"/>
		</g>
		<g>
			<path style="fill:#A5A5A9;" d="M1580.995,709.679c-3.735,0-6.762,3.028-6.762,6.762c0,3.735,3.027,6.762,6.762,6.762
				c3.734,0,6.762-3.027,6.762-6.762C1587.758,712.707,1584.729,709.679,1580.995,709.679z"/>
		</g>
		<g>
			<path style="fill:#BCB39A;" d="M1243.225,672.453c3.735,0,6.763-3.028,6.763-6.762c0-3.735-3.028-6.762-6.763-6.762
				c-3.734,0-6.762,3.027-6.762,6.762C1236.463,669.425,1239.491,672.453,1243.225,672.453z"/>
		</g>
	</g>
	<g>
		<path style="fill:#BCB39A;" d="M260.209,345.426c-11.242,15.033-29.181,24.766-49.394,24.779h0.015
			C231.036,370.187,248.969,360.455,260.209,345.426z"/>
		<path style="fill:#BCB39A;" d="M271.754,299.121c-4.524-29.612-30.103-52.296-60.979-52.296v0.001
			C241.651,246.826,267.229,269.509,271.754,299.121z"/>
		<path style="fill:#BCB39A;" d="M210.774,370.205v-20.41c-22.798,0-41.279-18.481-41.279-41.279
			c0-22.798,18.481-41.279,41.279-41.279v-20.411v-0.001c-34.071,0-61.691,27.62-61.691,61.691c0,34.071,27.62,61.691,61.691,61.691
			c0.019,0,0.037-0.001,0.056-0.001h-0.015H210.774z"/>
		<path style="fill:#808083;" d="M272.464,308.516c0,11.712-3.264,22.661-8.931,31.989
			C269.201,331.177,272.464,320.228,272.464,308.516z"/>
		<path style="fill:#808083;" d="M210.774,246.826v20.411c22.798,0,41.279,18.481,41.279,41.279
			c0,22.798-18.481,41.279-41.279,41.279v20.41h0.041c20.213-0.013,38.152-9.746,49.394-24.779c1.184-1.583,2.294-3.226,3.324-4.922
			c5.667-9.327,8.931-20.277,8.931-31.989c0-3.194-0.243-6.331-0.711-9.395C267.229,269.509,241.651,246.826,210.774,246.826z"/>
		<path style="fill:#BCB39A;" d="M343.515,318.373c0-7.039,5.707-12.746,12.745-12.746v-12.399
			c-13.887,0-25.144,11.258-25.144,25.145c0,13.887,11.257,25.145,25.144,25.145v-12.4
			C349.222,331.118,343.515,325.412,343.515,318.373z"/>
		<path style="fill:#BCB39A;" d="M356.262,343.518v-8.32c9.293,0,16.826-7.533,16.826-16.826c0-9.292-7.533-16.826-16.826-16.826
			v-8.32c0,0,0,0,0,0h-0.001v12.399l0.001,0c7.04,0,12.747,5.707,12.747,12.746c0,7.04-5.706,12.746-12.747,12.746l-0.001,0v12.4
			H356.262C356.262,343.518,356.262,343.518,356.262,343.518z"/>
		<path style="fill:#BCB39A;" d="M378.928,307.471c0.238,0.494,0.455,1.001,0.661,1.513
			C379.382,308.472,379.166,307.965,378.928,307.471z"/>
		<path style="fill:#BCB39A;" d="M377.925,331.137c0.769-1.303,1.429-2.678,1.957-4.118
			C379.354,328.459,378.694,329.834,377.925,331.137z"/>
		<path style="fill:#808083;" d="M379.882,327.019c0.282-0.77,0.527-1.558,0.734-2.362
			C380.409,325.46,380.164,326.248,379.882,327.019z"/>
		<path style="fill:#808083;" d="M377.925,331.137c-4.375,7.408-12.436,12.381-21.663,12.381v0
			C365.489,343.519,373.55,338.546,377.925,331.137z"/>
		<path style="fill:#808083;" d="M378.928,307.471c-4.061-8.428-12.684-14.244-22.666-14.244v0.001
			C366.244,293.227,374.867,299.043,378.928,307.471z"/>
		<path style="fill:#808083;" d="M379.589,308.983c0.558,1.385,1.002,2.827,1.308,4.321
			C380.591,311.811,380.146,310.368,379.589,308.983z"/>
		<path style="fill:#808083;" d="M380.896,313.305c0.168,0.819,0.295,1.651,0.381,2.497
			C381.192,314.956,381.064,314.123,380.896,313.305z"/>
		<path style="fill:#808083;" d="M380.896,313.305c-0.306-1.494-0.75-2.937-1.308-4.321c-0.206-0.512-0.423-1.018-0.661-1.513
			c-4.061-8.428-12.684-14.243-22.666-14.244v8.32c9.293,0,16.826,7.533,16.826,16.826c0,9.292-7.533,16.826-16.826,16.826v8.32
			c9.227,0,17.288-4.973,21.663-12.381c0.769-1.303,1.429-2.678,1.957-4.118c0.282-0.77,0.527-1.558,0.734-2.362
			c0.517-2.009,0.792-4.114,0.792-6.284c0-0.868-0.044-1.726-0.13-2.571C381.192,314.956,381.064,314.123,380.896,313.305z"/>
		<path style="fill:#5EA49B;" d="M250.238,211.58c11.73,0,21.24-9.51,21.24-21.24c0-11.73-9.51-21.241-21.24-21.241
			c-11.731,0-21.241,9.51-21.241,21.241C228.997,202.07,238.507,211.58,250.238,211.58z"/>
		<path style="fill:#A5A5A9;" d="M162.707,402.484c-15.233,0-27.581,12.349-27.581,27.581c0,15.232,12.349,27.581,27.581,27.581
			c15.232,0,27.581-12.349,27.581-27.581C190.288,414.833,177.939,402.484,162.707,402.484z"/>
		<circle style="fill:#A5A5A9;" cx="128.82" cy="217.726" r="11.445"/>
		<path style="fill:#A5A5A9;" d="M281.753,234.655c-6.32,0-11.445,5.124-11.445,11.445c0,0.245,0.022,0.484,0.037,0.725h2.119v5.944
			c2.078,2.889,5.459,4.777,9.289,4.777c6.321,0,11.445-5.125,11.445-11.445C293.198,239.779,288.074,234.655,281.753,234.655z"/>
		<path style="fill:#A5A5A9;" d="M270.345,246.825c0.139,2.211,0.901,4.249,2.119,5.944v-5.944H270.345z"/>
		<path style="fill:#BCB39A;" d="M64.809,305.403c-8.621,0-15.61,6.989-15.61,15.609c0,8.622,6.988,15.609,15.61,15.609
			c8.62,0,15.609-6.988,15.609-15.609C80.418,312.392,73.429,305.403,64.809,305.403z"/>
	</g>
	<g>
		<path style="fill:#59595C;" d="M919.808,972.895c-0.429,0.249-0.882,0.458-1.347,0.641l0.088,0.141L919.808,972.895z"/>
		
			<rect x="861.801" y="1010.629" transform="matrix(0.7174 -0.6967 0.6967 0.7174 -460.7596 889.017)" style="fill:#59595C;" width="7.166" height="3.583"/>
		
			<rect x="922.063" y="975.234" transform="matrix(0.8493 -0.528 0.528 0.8493 -377.5282 635.3154)" style="fill:#59595C;" width="3.583" height="7.166"/>
		
			<rect x="933.415" y="993.49" transform="matrix(0.8493 -0.528 0.528 0.8493 -385.4556 644.061)" style="fill:#59595C;" width="3.583" height="7.166"/>
		
			<rect x="830.956" y="1040.582" transform="matrix(0.7174 -0.6966 0.6966 0.7174 -490.3342 875.9129)" style="fill:#59595C;" width="7.166" height="3.583"/>
		
			<rect x="927.739" y="984.362" transform="matrix(0.8493 -0.528 0.528 0.8493 -381.4868 639.6689)" style="fill:#59595C;" width="3.583" height="7.166"/>
		
			<rect x="900.359" y="973.189" transform="matrix(0.7174 -0.6966 0.6966 0.7174 -423.776 905.2444)" style="fill:#59595C;" width="7.166" height="3.583"/>
		
			<rect x="939.091" y="1002.618" transform="matrix(0.8493 -0.528 0.528 0.8493 -389.414 648.4142)" style="fill:#59595C;" width="3.583" height="7.166"/>
		
			<rect x="892.647" y="980.677" transform="matrix(0.7174 -0.6967 0.6967 0.7174 -431.1749 902.0415)" style="fill:#59595C;" width="7.166" height="3.583"/>
		
			<rect x="869.513" y="1003.141" transform="matrix(0.7174 -0.6967 0.6967 0.7174 -453.3633 892.2731)" style="fill:#59595C;" width="7.166" height="3.583"/>
		
			<rect x="877.224" y="995.653" transform="matrix(0.7174 -0.6966 0.6966 0.7174 -445.9632 895.4761)" style="fill:#59595C;" width="7.166" height="3.583"/>
		<path style="fill:#59595C;" d="M921.591,971.786l-0.087-0.14c-0.467,0.426-0.975,0.807-1.516,1.137L921.591,971.786z"/>
		
			<rect x="944.768" y="1011.746" transform="matrix(0.8492 -0.5281 0.5281 0.8492 -393.4189 652.9397)" style="fill:#59595C;" width="3.583" height="7.166"/>
		
			<rect x="973.603" y="1010.817" transform="matrix(0.8162 -0.5777 0.5777 0.8162 -405.4294 750.6112)" style="fill:#59595C;" width="7.166" height="3.583"/>
		
			<rect x="982.376" y="1004.607" transform="matrix(0.8163 -0.5777 0.5777 0.8163 -400.2239 754.507)" style="fill:#59595C;" width="7.166" height="3.583"/>
		
			<rect x="991.15" y="998.396" transform="matrix(0.8162 -0.5777 0.5777 0.8162 -395.0296 758.4658)" style="fill:#59595C;" width="7.166" height="3.583"/>
		<path style="fill:#59595C;" d="M999.547,994.585l2.07,2.925l5.421-3.837c-0.853-0.843-1.556-1.834-2.057-2.934L999.547,994.585z"
			/>
		
			<rect x="846.378" y="1025.605" transform="matrix(0.7174 -0.6967 0.6967 0.7174 -475.5518 882.5047)" style="fill:#59595C;" width="7.166" height="3.583"/>
		
			<rect x="884.935" y="988.165" transform="matrix(0.7174 -0.6967 0.6967 0.7174 -438.5693 898.7589)" style="fill:#59595C;" width="7.166" height="3.583"/>
		
			<rect x="964.83" y="1017.026" transform="matrix(0.8162 -0.5777 0.5777 0.8162 -410.6292 746.6838)" style="fill:#59595C;" width="7.166" height="3.583"/>
		
			<rect x="854.09" y="1018.117" transform="matrix(0.7174 -0.6967 0.6967 0.7174 -468.153 885.7343)" style="fill:#59595C;" width="7.166" height="3.583"/>
		
			<rect x="838.667" y="1033.094" transform="matrix(0.7174 -0.6967 0.6967 0.7174 -482.9481 879.2487)" style="fill:#59595C;" width="7.166" height="3.583"/>
		<path style="fill:#BCB39A;" d="M824.683,1041.585c-5.431-0.343-10.113,3.781-10.456,9.214c-0.344,5.431,3.782,10.112,9.212,10.456
			c5.432,0.343,10.113-3.782,10.456-9.213C834.239,1046.609,830.115,1041.928,824.683,1041.585z M825.505,1053.643l-2.496-2.57
			l5.141-4.992l2.496,2.57L825.505,1053.643z"/>
		
			<rect x="823.244" y="1048.07" transform="matrix(0.7174 -0.6967 0.6967 0.7174 -497.7403 872.7363)" style="fill:#BCB39A;" width="7.166" height="3.583"/>
		<path style="fill:#5EA49B;" d="M917.807,965.701l3.697,5.945c1.822-1.661,3.031-4,3.199-6.655
			c0.343-5.432-3.781-10.112-9.212-10.456c-5.431-0.343-10.112,3.782-10.455,9.213c-0.344,5.43,3.78,10.113,9.212,10.455
			c1.487,0.094,2.912-0.156,4.213-0.667l-3.696-5.944L917.807,965.701z M910.33,971.273l-2.496-2.57l5.141-4.992l2.496,2.57
			L910.33,971.273z"/>
		<path style="fill:#5EA49B;" d="M919.988,972.783l-0.18,0.112C919.869,972.859,919.927,972.82,919.988,972.783z"/>
		
			<rect x="908.07" y="965.701" transform="matrix(0.7174 -0.6966 0.6966 0.7174 -416.3804 908.5021)" style="fill:#5EA49B;" width="7.166" height="3.583"/>
		<path style="fill:#5EA49B;" d="M919.988,972.783c0.542-0.33,1.049-0.711,1.516-1.137l-3.697-5.945l-3.043,1.892l3.696,5.944
			c0.466-0.183,0.918-0.392,1.347-0.641L919.988,972.783z"/>
		<path style="fill:#BCB39A;" d="M955.437,1017.539c-5.431-0.344-10.112,3.781-10.455,9.213c-0.343,5.431,3.781,10.112,9.212,10.455
			c5.432,0.344,10.112-3.781,10.456-9.212C964.993,1022.563,960.869,1017.881,955.437,1017.539z M952.606,1028.445l-3.784-6.085
			l3.043-1.892l3.784,6.085L952.606,1028.445z M957.75,1028.561l-2.07-2.925l5.849-4.14l2.07,2.925L957.75,1028.561z"/>
		
			<rect x="950.444" y="1020.874" transform="matrix(0.8492 -0.5281 0.5281 0.8492 -397.3858 657.3234)" style="fill:#BCB39A;" width="3.583" height="7.166"/>
		
			<rect x="956.056" y="1023.237" transform="matrix(0.8163 -0.5777 0.5777 0.8163 -415.8228 742.7252)" style="fill:#BCB39A;" width="7.166" height="3.583"/>
		<path style="fill:#5EA49B;" d="M1014.572,976.831c-5.43-0.344-10.111,3.782-10.455,9.212c-0.105,1.672,0.215,3.271,0.864,4.696
			l0.415-0.293l2.07,2.925l-0.428,0.303c1.632,1.611,3.824,2.67,6.292,2.826c5.431,0.343,10.112-3.782,10.456-9.213
			C1024.128,981.855,1020.004,977.173,1014.572,976.831z M1010.39,991.3l-2.07-2.925l4.602-3.257l2.07,2.925L1010.39,991.3z"/>
		<path style="fill:#5EA49B;" d="M1005.396,990.445l-0.415,0.293c0.501,1.101,1.203,2.092,2.057,2.934l0.428-0.303L1005.396,990.445
			z"/>
		
			<rect x="1008.837" y="986.417" transform="matrix(0.8163 -0.5777 0.5777 0.8163 -384.9945 766.0094)" style="fill:#5EA49B;" width="5.637" height="3.583"/>
	</g>
	<g>
		<path style="fill:#434244;" d="M663.085,507.103h30.148c29.721,0,53.897,24.175,53.897,53.897s-24.175,53.897-53.897,53.897
			h-30.148V507.103z M693.233,593.281c17.918,0,32.281-14.363,32.281-32.281c0-17.776-14.363-32.281-32.281-32.281h-8.675v64.562
			H693.233z"/>
		<path style="fill:#434244;" d="M754.381,507.103h64.989v21.616h-43.516v21.473h43.516v21.616h-43.516v21.474h43.516v21.615
			h-64.989V507.103z"/>
		<path style="fill:#434244;" d="M826.622,539.527c0-17.918,14.505-32.423,32.281-32.423c12.514,0,24.033,4.266,33.134,11.377
			l-15.501,15.501c-4.977-3.271-11.092-5.262-17.634-5.262c-5.973,0-10.808,4.835-10.808,10.808c0,2.56,0.995,4.977,2.56,6.968
			c3.413,3.839,8.959,4.55,14.363,4.835c17.634,0.853,31.143,13.083,31.143,31.286c0,17.776-14.505,32.281-32.281,32.281
			c-14.505,0-27.588-5.688-37.258-14.932l15.216-15.216c5.831,5.404,13.51,8.675,22.042,8.675c5.831,0,10.666-4.835,10.666-10.808
			c0-3.271-1.28-6.541-4.266-8.248c-5.12-2.987-13.652-2.133-19.056-3.413C837.145,567.399,826.622,554.743,826.622,539.527z"/>
		<path style="fill:#434244;" d="M903.413,507.103h21.473v107.794h-21.473V507.103z"/>
		<path style="fill:#434244;" d="M1023.151,522.035l-15.216,15.358c-5.688-5.404-13.51-8.674-21.9-8.674
			c-17.918,0-32.423,14.505-32.423,32.281c0,17.918,14.505,32.424,32.423,32.424c10.523,0,19.909-5.12,25.882-12.941h-25.882
			v-21.616H996.7h21.616h21.474c0,0.711,0.142,1.422,0.142,2.133c0,29.721-24.175,53.897-53.897,53.897
			c-29.721,0-53.897-24.175-53.897-53.897s24.175-53.897,53.897-53.897C1000.398,507.103,1013.481,512.792,1023.151,522.035z"/>
		<path style="fill:#434244;" d="M1115.442,507.103h21.473v107.794h-25.029l-43.231-71.815v71.815h-21.473V507.103h25.171
			l43.089,71.957V507.103z"/>
	</g>
</g>
</svg>
