<?xml version="1.0" encoding="UTF-8"?>
<svg version="1.1" viewBox="0 0 2000 2000" width="1280" height="1280" xmlns="http://www.w3.org/2000/svg">
<path transform="translate(875,596)" d="m0 0 5 1 11 6 19 13 17 12 19 14 32 24 14 11 16 13 8 7 14 14 11 16 7 16 4 17v27l-6 39-10 42-14 51-15 48-16 50-16 52-16 54-10 36-9 31-23 68-14 46-8 24-3 11h-1l-1-41-2-37-3-44-2-17-3-65-1-26-2-8-4-6-10-7-24-16-22-15-20-14-14-12-11-11-8-14-5-12-1-5v-18l3-18 9-31 24-76 21-67 18-58 11-35 10-30 14-48 5-10z" fill="#71D0FA"/>
<path transform="translate(1102,750)" d="m0 0 5 3 14 14 7 8 12 14 16 17 18 20 12 13 9 11 10 11 9 11 11 15 7 14 4 14 1 7v9l-6 31-10 33-14 40-12 34-16 47-15 43-19 54-10 28-6 20-9 27-2 1-3-14-4-38-9-59-10-64-8-46-9-43-4-21-4-28-1-13v-17l3-25 6-35 10-53 6-36 7-36 3-10z" fill="#71D0FA"/>
</svg>
